<?xml version="1.0" encoding="UTF-8" standalone="no"?>
<!-- Created with Inkscape (http://www.inkscape.org/) -->

<svg
   width="123.87856mm"
   height="103.80258mm"
   viewBox="0 0 123.87856 103.80258"
   version="1.1"
   id="svg1"
   inkscape:version="1.3.2 (091e20e, 2023-11-25, custom)"
   sodipodi:docname="Cookbook.svg"
   xmlns:inkscape="http://www.inkscape.org/namespaces/inkscape"
   xmlns:sodipodi="http://sodipodi.sourceforge.net/DTD/sodipodi-0.dtd"
   xmlns="http://www.w3.org/2000/svg"
   xmlns:svg="http://www.w3.org/2000/svg">
  <sodipodi:namedview
     id="namedview1"
     pagecolor="#ffffff"
     bordercolor="#999999"
     borderopacity="1"
     inkscape:showpageshadow="2"
     inkscape:pageopacity="0"
     inkscape:pagecheckerboard="0"
     inkscape:deskcolor="#d1d1d1"
     inkscape:document-units="mm"
     inkscape:zoom="1.048534"
     inkscape:cx="226.02988"
     inkscape:cy="229.36787"
     inkscape:window-width="2560"
     inkscape:window-height="1377"
     inkscape:window-x="-8"
     inkscape:window-y="-8"
     inkscape:window-maximized="1"
     inkscape:current-layer="layer1" />
  <defs
     id="defs1">
    <inkscape:path-effect
       effect="perspective-envelope"
       up_left_point="103.13937,189.41278"
       up_right_point="142.55453,176.50365"
       down_left_point="113.24216,201.33404"
       down_right_point="152.00251,186.36695"
       id="path-effect20"
       is_visible="true"
       lpeversion="1"
       deform_type="perspective"
       horizontal_mirror="false"
       vertical_mirror="false"
       overflow_perspective="false" />
    <inkscape:path-effect
       effect="perspective-envelope"
       up_left_point="77.636529,156.90341"
       up_right_point="117.03833,144.55555"
       down_left_point="89.329571,170.60701"
       down_right_point="127.70239,155.82701"
       id="path-effect19"
       is_visible="true"
       lpeversion="1"
       deform_type="perspective"
       horizontal_mirror="false"
       vertical_mirror="false"
       overflow_perspective="false" />
    <inkscape:path-effect
       effect="perspective-envelope"
       up_left_point="38.998342,172.3156"
       up_right_point="124.01993,136.22072"
       down_left_point="81.897548,235.28429"
       down_right_point="170.24107,192.27059"
       id="path-effect8"
       is_visible="true"
       lpeversion="1"
       deform_type="perspective"
       horizontal_mirror="false"
       vertical_mirror="false"
       overflow_perspective="false" />
    <inkscape:path-effect
       effect="perspective-envelope"
       up_left_point="103.13937,189.41278"
       up_right_point="142.55453,176.50365"
       down_left_point="113.24216,201.33404"
       down_right_point="152.00251,186.36695"
       id="path-effect20-0"
       is_visible="true"
       lpeversion="1"
       deform_type="perspective"
       horizontal_mirror="false"
       vertical_mirror="false"
       overflow_perspective="false" />
    <inkscape:path-effect
       effect="perspective-envelope"
       up_left_point="77.636529,156.90341"
       up_right_point="117.03833,144.55555"
       down_left_point="89.329571,170.60701"
       down_right_point="127.70239,155.82701"
       id="path-effect19-4"
       is_visible="true"
       lpeversion="1"
       deform_type="perspective"
       horizontal_mirror="false"
       vertical_mirror="false"
       overflow_perspective="false" />
  </defs>
  <g
     inkscape:label="Layer 1"
     inkscape:groupmode="layer"
     id="layer1"
     transform="translate(-45.188123,-87.859525)">
    <path
       style="fill:#f4efe4;fill-opacity:1;stroke:none;stroke-width:0.865013;stroke-linecap:round;stroke-linejoin:round;stroke-dasharray:none"
       id="rect8"
       width="64.558334"
       height="44.185417"
       x="36.247913"
       y="186.79584"
       inkscape:path-effect="#path-effect8"
       sodipodi:type="rect"
       d="m 52.091129,166.75722 60.218341,-25.56497 c 6.51435,-2.76559 16.86673,1.2812 23.39026,9.19193 l 21.58396,26.1737 c 7.11643,8.62971 7.58334,18.32929 0.84131,21.61192 l -62.565927,30.46281 c -7.532858,3.66768 -19.106216,-1.34019 -25.730622,-11.06369 L 49.798578,188.1685 c -6.035594,-8.85922 -4.929188,-18.34538 2.292551,-21.41128 z"
       ry="11.765946"
       rx="9.4046249"
       transform="matrix(1.0344497,0,0,0.82684474,0.54154272,1.623479)"
       inkscape:label="shadow_book" />
    <g
       id="g4"
       transform="translate(11.96923,-42.110819)">
      <g
         id="g21"
         transform="translate(-16.472538,-0.25128778)">
        <path
           style="fill:#502d16;fill-opacity:1;stroke:none;stroke-width:0.599998;stroke-linecap:butt;stroke-linejoin:round;stroke-dasharray:none;stroke-opacity:1"
           d="m 101.8943,225.30633 c -0.27933,-0.14264 -0.59413,-0.50356 -0.71052,-0.81463 -0.14451,-0.38618 -0.16112,-0.47961 -0.0901,-0.50706 0.0344,-0.0133 11.81378,-4.82116 26.17634,-10.68413 16.16573,-6.59903 26.2896,-10.73125 26.52692,-10.97732 l 0.57393,-0.5951 0.35529,0.37544 c 0.21245,0.22451 0.58422,0.72517 0.62724,0.89653 0.0291,0.11571 0.009,0.15499 -0.15109,0.29415 -0.10153,0.0883 -0.29091,0.21479 -0.42084,0.28105 -0.53275,0.27165 -14.7849,6.33855 -24.14315,10.27734 -14.81015,6.23341 -25.22597,10.47932 -27.88667,11.3677 -0.31788,0.10614 -0.59427,0.19269 -0.61422,0.19232 -0.0199,-2.6e-4 -0.12933,-0.0482 -0.2431,-0.10629 z"
           id="path4"
           sodipodi:nodetypes="ssssscsssssscss" />
        <path
           style="fill:none;stroke:#f2f2f2;stroke-width:0.6;stroke-linejoin:round;stroke-dasharray:none"
           d="m 156.78596,191.98952 c -1.62799,2.75684 -3.86183,6.00383 -2.86898,9.27514 0.36685,0.8505 -0.0396,0.68191 -0.78288,1.15065 l -51.96923,21.21657"
           id="path14-6"
           sodipodi:nodetypes="cccc" />
        <path
           style="fill:#c84a37;fill-opacity:1;stroke:#852212;stroke-width:0.6;stroke-linejoin:round;stroke-dasharray:none;stroke-opacity:1"
           d="m 57.468668,145.05761 50.169382,-14.49289 c 0.71321,-0.16348 1.27253,0.13496 1.77536,0.60251 l 51.31064,56.55979 c 1.15775,1.15732 1.01323,2.22072 -1.1433,3.13911 l -49.69178,18.7828 z"
           id="path3-9"
           sodipodi:nodetypes="ccccccc"
           inkscape:label="cover2" />
        <path
           style="fill:#e9b7af;fill-opacity:1;stroke:#872212;stroke-width:0.6;stroke-linejoin:round;stroke-dasharray:none;stroke-opacity:1"
           d="m 68.32604,149.62231 c -1.551941,-1.96789 -0.7307,-3.44393 2.409424,-4.43935 l 33.985896,-10.0203 c 1.38633,-0.41964 2.7005,-1.11783 4.94572,1.77574 l 43.11642,47.69147 c 1.0303,1.08965 1.46421,2.08698 0,2.79047 l -38.17073,14.96701 c -2.03808,0.95608 -3.30404,0.0457 -4.81889,-1.77574 z"
           id="path2-8"
           sodipodi:nodetypes="ccccccccc"
           inkscape:label="cover1" />
        <path
           style="fill:none;stroke:#852212;stroke-width:0.6;stroke-linecap:butt;stroke-linejoin:round;stroke-dasharray:none;stroke-opacity:1"
           d="m 57.447653,145.03348 c -2.567303,-1.02351 -8.968587,5.33965 -7.129078,16.03606 l 7.355435,10.15719 c 0.505953,1.29025 0.549553,1.58417 1.791301,2.24794 l 7.845662,9.87991 c 0.355566,0.64062 0.584389,1.4333 1.379357,1.83422 l 7.787773,9.53716 c 0.251183,0.63086 0.556911,1.18357 1.101104,1.39555 l 10.193366,12.99101 c 0.188546,0.46497 0.357013,0.99537 1.02905,1.2185 0,0 11.621257,15.10134 12.380977,15.53754 0.41868,0.24045 0.59354,0.42932 1.20561,0.16488 0.36335,-0.15673 1.59595,-0.86807 1.92157,-1.09098 m 50.04232,-23.04911 c 0.13086,0.002 0.94354,0.35464 1.17903,1.19982 0.0879,0.31478 -0.73317,0.79272 -0.81005,0.82631 -5.469,2.38726 -51.39874,21.9437 -52.30796,21.62669 -1.26892,-0.44254 -1.45907,-1.64025 -1.47662,-3.40976 -0.0143,-1.716 0.28402,-3.83313 1.18506,-5.53385 1.48594,-2.80513 4.75246,-5.36725 7.7595,-6.96154"
           id="path4-7"
           sodipodi:nodetypes="ccccccccccssccsssssc"
           inkscape:label="edge" />
        <path
           style="fill:#872212;fill-opacity:1;stroke:none;stroke-width:2.26772;stroke-linejoin:round;stroke-dasharray:none;stroke-opacity:1"
           d="m 383.59951,853.42303 c -1.74849,-0.9503 -11.31884,-13.00976 -34.39747,-42.6759 l -13.43893,-17.27492 0.95963,-5.61775 c 2.51239,-14.70785 6.42947,-25.61474 12.4634,-34.70373 2.35955,-3.55422 6.98478,-8.68231 9.79994,-10.86539 2.83598,-2.19923 3.47859,-4.67352 1.45344,-5.59624 -2.51062,-1.14391 -4.08083,-0.29514 -9.25029,5.00028 -6.28845,6.44166 -9.95657,11.57725 -13.36196,18.70753 -3.46112,7.24699 -5.29911,13.65593 -6.51684,22.72385 l -0.56975,4.24264 -18.14968,-23.15775 c -9.98233,-12.73676 -18.5129,-23.47594 -18.95683,-23.86485 -0.75968,-0.66552 -0.78916,-0.85266 -0.50129,-3.18198 0.50977,-4.12473 1.31806,-7.53186 2.93344,-12.36504 4.10703,-12.28812 11.14371,-22.74457 20.26626,-30.11547 4.70981,-3.80547 5.75456,-4.91565 5.75456,-6.11497 0,-1.16334 -0.54434,-1.70029 -2.02359,-1.99614 -2.27735,-0.45548 -5.96404,2.11518 -13.13479,9.15862 -9.56984,9.39994 -14.5482,18.70912 -17.38879,32.51582 -0.55972,2.72054 -1.06589,4.99465 -1.12482,5.05358 -0.0589,0.0589 -6.2278,-7.40035 -13.70861,-16.57618 -7.4808,-9.17583 -14.04408,-17.10866 -14.58506,-17.6285 l -0.98361,-0.94518 0.36919,-5.59556 c 1.48391,-22.49041 9.04947,-40.01603 21.34089,-49.43618 2.63117,-2.01654 3.62716,-3.50198 3.27878,-4.89003 -0.48138,-1.91798 -4.28019,-2.65454 -6.8718,-1.3324 -1.7074,0.87105 -7.3142,6.1559 -9.93799,9.36733 -8.30949,10.17055 -13.01825,23.44926 -13.75977,38.80254 l -0.23617,4.88993 -13.78858,-17.36352 c -7.58372,-9.54993 -14.17844,-17.67028 -14.65493,-18.04522 -0.71863,-0.56548 -0.94071,-1.20606 -1.30253,-3.75707 -0.54578,-3.8481 -0.60566,-13.61271 -0.10597,-17.28031 1.78069,-13.06969 7.84364,-23.89874 19.66415,-35.12222 3.83472,-3.64104 4.80941,-5.07403 4.64012,-6.82196 -0.0963,-0.99455 -0.24864,-1.13988 -1.30008,-1.24044 -1.71036,-0.1636 -2.98454,0.44311 -6.66614,3.17412 -6.56657,4.87109 -12.96624,11.73891 -16.48543,17.69136 -4.51411,7.6353 -6.54233,15.16187 -6.91006,25.64275 l -0.21365,6.08923 -12.19759,-16.83455 c -6.70868,-9.259 -12.37681,-17.16988 -12.59584,-17.57972 -1.21381,-2.27116 -1.74948,-16.31098 -0.87152,-22.84225 0.91394,-6.79898 2.59475,-12.71852 5.21275,-18.35852 4.79244,-10.32444 13.50296,-18.70084 19.07528,-18.34359 l 1.70539,0.10933 11.3401,13.96536 c 16.64973,20.50418 186.12665,228.49249 186.49664,228.96478 0.21453,0.27386 -1.33729,0.42417 -2.72817,1.20352 -11.29831,6.33081 -22.52982,17.00702 -26.77459,25.4508 -1.48486,2.95372 -2.83268,7.11827 -3.60438,11.13693 -0.75977,3.95655 -0.87344,13.87558 -0.19308,16.84901 0.572,2.49985 2.15059,4.92566 3.77444,5.80016 0.68364,0.36816 1.57443,0.75915 1.57443,0.90938 0,0.44125 -1.8125,0.61805 -2.81225,0.0747 z"
           id="path2"
           sodipodi:nodetypes="sscssssssscsssssssssssscsssssscsssssssssscssssscssssssssss"
           transform="scale(0.26458333)"
           inkscape:label="spine" />
        <path
           style="fill:#501e16;fill-opacity:1;stroke:#501e16;stroke-width:0.199999;stroke-linejoin:round;stroke-opacity:1"
           d="m 57.473699,171.30034 c -0.963905,-7.70492 2.544426,-11.76768 6.794154,-14.79973 1.524404,-0.70345 1.399251,0.0219 0.972996,0.8644 -4.152418,3.61631 -7.51362,8.08928 -5.936648,16.25312 -0.759035,-0.31927 -1.421963,-0.90322 -1.830502,-2.31779 z"
           id="path5-6"
           sodipodi:nodetypes="ccccc"
           inkscape:label="rib4" />
        <path
           style="fill:#501e16;fill-opacity:1;stroke:#501e16;stroke-width:0.199999;stroke-linejoin:round;stroke-opacity:1"
           d="m 67.132675,183.4676 c -0.215084,-6.49491 1.852682,-11.49575 6.06521,-14.78469 0.438343,-0.34218 1.214313,-0.39552 1.650515,-0.12987 0.385427,0.23487 0.521445,0.73047 -0.304526,1.32409 -5.903667,4.24308 -6.095236,13.43747 -6.000006,15.46033 -0.633395,-0.19508 -1.052122,-0.91765 -1.411193,-1.86986 z"
           id="path7-7"
           sodipodi:nodetypes="cssscc"
           inkscape:label="rib3" />
        <path
           style="fill:#501e16;fill-opacity:1;stroke:#501e16;stroke-width:0.199999;stroke-linejoin:round;stroke-opacity:1"
           d="m 76.323461,194.88305 c 0.759175,-6.61756 3.35987,-9.71207 7.200505,-12.76185 1.162886,-0.92343 2.442894,-0.12697 0.983412,0.92222 -5.903708,4.24304 -7.19714,11.19828 -7.101889,13.22114 -0.695788,-0.29474 -0.905519,-0.86217 -1.082028,-1.38151 z"
           id="path7-1-8"
           sodipodi:nodetypes="csscc"
           inkscape:label="rib2" />
        <path
           style="fill:#501e16;fill-opacity:1;stroke:#501e16;stroke-width:0.199999;stroke-linejoin:round;stroke-opacity:1"
           d="m 87.579403,209.20759 c 0.225847,-6.55005 2.883334,-10.72564 6.389806,-13.92633 0.98282,-0.89711 2.491224,-0.12473 1.092156,0.95853 -5.34168,4.13599 -6.020179,12.19667 -6.375602,14.30537 -0.481736,-0.16455 -0.865926,-0.5737 -1.10636,-1.33757 z"
           id="path7-0-3"
           sodipodi:nodetypes="csscc"
           inkscape:label="rib1" />
        <path
           style="fill:#f2f2f2;fill-opacity:1;stroke:none;stroke-width:2.26771;stroke-linecap:butt;stroke-linejoin:round;stroke-dasharray:none;stroke-opacity:1"
           d="m 383,838.47892 c 0,-8.34837 1.73234,-15.06869 5.57269,-21.61832 2.03196,-3.46546 11.44424,-13.05086 15.93122,-16.22425 8.32538,-5.88808 7.5301,-5.5652 97.74609,-39.68558 48.125,-18.20124 87.55815,-33.04048 87.62923,-32.97607 0.0711,0.0644 -1.03103,2.12144 -2.44913,4.5712 -1.4181,2.44975 -3.23822,5.89558 -4.04471,7.6574 -3.11699,6.80918 -4.228,15.088 -2.70424,20.15105 l 0.68114,2.26328 -2.30014,1.1175 C 576.69461,764.88537 383.69694,843.75 383.24962,843.75 383.11233,843.75 383,841.37801 383,838.47892 Z"
           id="path5"
           transform="scale(0.26458333)"
           inkscape:label="pages" />
        <path
           d="m 116.45704,191.99798 c 1.34817,-0.11027 2.35024,-0.0271 3.01327,0.24888 0.66827,0.27359 1.16835,0.59948 1.5011,0.97832 0.71592,0.81508 0.74596,1.92215 0.0808,3.33491 -0.67907,1.42986 -1.82601,2.46324 -3.44845,3.08973 -0.91375,0.35285 -1.54821,0.32557 -1.89801,-0.0832 -0.57529,-0.67228 -0.22149,-1.24982 1.05069,-1.73044 l 0.4444,-0.16789 c 0.59016,-0.22296 1.1152,-0.75052 1.57404,-1.57782 0.45094,-0.8242 0.45461,-1.48611 0.0147,-1.99048 -0.26648,-0.30555 -0.68249,-0.51103 -1.24905,-0.61689 -0.57134,-0.11036 -1.16105,-0.0563 -1.77053,0.16316 -0.0479,0.0172 -0.22668,0.16968 -0.53717,0.45812 -0.31774,0.29174 -0.57997,0.47531 -0.786,0.54991 -0.57133,0.20689 -0.98983,0.29231 -1.25379,0.25556 -0.25807,-0.039 -0.51896,-0.21205 -0.78223,-0.51885 -0.18409,-0.21452 0.19287,-0.72539 1.12299,-1.52605 0.52879,-0.4462 0.93337,-1.02907 1.21466,-1.7467 0.27552,-0.71661 0.27044,-1.23588 -0.0134,-1.56143 -0.36438,-0.4179 -0.974,-0.48132 -1.83362,-0.18936 -0.81109,0.27547 -1.55674,0.61157 -2.23652,1.00897 -0.68427,0.40002 -0.98966,0.71072 -0.91269,0.93035 0.0771,0.21995 0.70134,1.29275 1.88193,3.23331 1.19304,1.96106 1.91617,3.09196 2.16013,3.37739 l 0.68133,0.94038 c 0.3416,0.47632 0.44808,0.82609 0.3186,1.04887 -0.12594,0.22784 -0.34409,0.40151 -0.6548,0.52082 -0.8364,0.32116 -1.59025,0.0888 -2.25587,-0.6966 -0.10369,-0.12235 -0.23633,-0.36209 -0.39769,-0.71871 -0.41539,-0.91867 -1.10759,-2.14634 -2.07252,-3.67759 -0.95097,-1.52127 -1.4703,-2.33221 -1.56366,-2.44189 -0.18658,-0.2192 -0.34255,-0.30708 -0.46814,-0.26377 l -0.24349,0.10097 c -0.17777,0.0783 -0.3785,0.0964 -0.60208,0.0542 -0.22749,-0.0467 -0.39888,-0.10423 -0.51405,-0.17256 -0.11517,-0.0683 -0.20257,-0.13767 -0.26218,-0.20799 -0.3684,-0.43463 0.16138,-1.14351 1.57315,-2.11643 1.39122,-0.95877 3.01043,-1.7432 4.85314,-2.35718 0.97106,-0.32354 1.91096,-0.40217 2.82304,-0.23805 0.91149,0.15748 1.57481,0.47354 1.99272,0.94926 0.30113,0.34279 0.41914,0.75774 0.35349,1.24611 -0.0696,0.48635 -0.36777,1.18808 -0.89828,2.11068 z m 14.02001,-2.5179 c 0.5041,1.08509 0.55109,2.14963 0.13484,3.19664 -0.41927,1.05257 -1.14427,1.78034 -2.17801,2.17691 -0.82439,0.31627 -1.71197,0.34874 -2.6603,0.0953 -0.95442,-0.25827 -1.72955,-0.72407 -2.32239,-1.39547 -0.96446,-1.09227 -1.40732,-2.34319 -1.33263,-3.74343 0.0738,-1.38303 0.8118,-2.31075 2.20305,-2.79182 0.93899,-0.32469 1.9251,-0.33003 2.96171,-0.0185 1.03041,0.30678 1.86402,0.81238 2.50418,1.51895 0.27862,0.30752 0.50663,0.62586 0.68403,0.95523 z m -5.99595,-0.40863 c -0.1614,0.39358 -0.17862,0.93894 -0.0506,1.63768 0.12869,0.70252 0.44814,1.34194 0.95876,1.91642 0.30995,0.34872 0.65012,0.60554 1.02006,0.77003 0.37538,0.16232 0.70231,0.19101 0.98045,0.0863 0.6871,-0.25864 1.12342,-0.83264 1.31065,-1.71736 0.18561,-0.87716 -0.06,-1.68809 -0.73412,-2.4366 -0.37846,-0.42024 -0.80824,-0.72177 -1.29015,-0.90524 -0.48048,-0.18964 -0.93478,-0.20908 -1.36372,-0.0578 -0.40833,0.14398 -0.68287,0.37835 -0.82298,0.70363 z m 14.91753,-2.84516 c 0.51572,1.03402 0.6002,2.04459 0.24797,3.03441 -0.35469,0.99465 -1.00917,1.67851 -1.96638,2.04573 -0.76314,0.29277 -1.59637,0.3161 -2.49758,0.0681 -0.90705,-0.25262 -1.65358,-0.70032 -2.2368,-1.34134 -0.94893,-1.04299 -1.41404,-2.23239 -1.39863,-3.55972 0.0152,-1.31162 0.67305,-2.18648 1.96313,-2.63257 0.87101,-0.30118 1.79893,-0.29873 2.78674,0.005 0.98187,0.29932 1.78609,0.78598 2.41578,1.46199 0.27404,0.29419 0.50082,0.59826 0.68035,0.91237 z m -5.65855,-0.43499 c -0.13654,0.37221 -0.13156,0.88951 0.0159,1.55334 0.14824,0.6673 0.47337,1.27618 0.97568,1.82497 0.30489,0.3331 0.63464,0.57932 0.98883,0.73826 0.35921,0.15694 0.66776,0.18683 0.92533,0.0899 0.63635,-0.23953 1.02489,-0.7802 1.1673,-1.61774 0.14123,-0.83065 -0.12089,-1.60213 -0.78394,-2.3179 -0.3723,-0.4019 -0.78837,-0.69151 -1.24896,-0.86945 -0.45947,-0.18378 -0.88772,-0.20576 -1.28548,-0.0655 -0.37859,0.13349 -0.62777,0.35381 -0.74695,0.66142 z m 12.08603,-4.37074 0.007,-0.003 -0.003,0.016 c -0.15646,0.21387 -0.27625,0.3953 -0.35916,0.54405 -0.15355,0.27881 -0.29754,0.5725 -0.43196,0.88117 -0.15354,0.35677 -0.24951,0.64602 -0.28749,0.86699 -0.0347,0.18476 -0.0234,0.30746 0.0338,0.36787 0.0644,0.068 0.59312,0.23322 1.58409,0.49517 0.98458,0.25743 1.72888,0.42672 2.23429,0.5083 0.50904,0.0797 0.9174,0.0614 1.22521,-0.0545 l 0.29678,-0.11971 c 0.10977,-0.0413 0.22343,-0.046 0.34106,-0.0139 0.11857,0.0265 0.22977,0.094 0.33367,0.20249 0.14697,0.15343 0.20117,0.37553 0.16245,0.66685 -0.0388,0.29218 -0.3425,0.54761 -0.91308,0.76646 -0.33728,0.12937 -0.77599,0.16025 -1.31627,0.0922 -0.5451,-0.072 -1.52123,-0.3282 -2.93104,-0.76964 -1.13345,-0.35653 -1.72764,-0.52546 -1.7803,-0.50607 -0.0335,0.0123 -0.0694,0.11816 -0.10755,0.31773 -0.0383,0.19999 -0.0496,0.34638 -0.0339,0.4389 l 0.006,0.006 c 0.21816,0.34923 0.57002,0.78206 1.05607,1.2988 0.24343,0.2588 0.34563,0.50616 0.30632,0.7423 -0.0346,0.23486 -0.18931,0.40527 -0.46464,0.51101 -0.28569,0.10972 -0.57108,0.12908 -0.85581,0.0578 -0.28131,-0.0674 -0.48415,-0.16755 -0.60829,-0.3003 -0.13137,-0.14049 -0.35832,-0.47154 -0.68018,-0.99202 -0.62518,-1.00549 -1.56227,-2.28951 -2.80671,-3.84732 -0.95901,-1.24473 -1.68736,-2.21461 -2.18823,-2.91363 -0.50247,-0.70008 -0.80123,-1.16553 -0.89763,-1.39809 -0.0998,-0.23589 -0.10774,-0.44549 -0.0242,-0.62878 0.0798,-0.1866 0.23169,-0.31643 0.45537,-0.38969 0.21355,-0.0699 0.44766,-0.0571 0.70252,0.0383 0.25608,0.0901 0.47484,0.23128 0.65649,0.42361 0.22729,0.24065 0.91546,1.25183 2.07355,3.04767 l 0.52375,0.80061 0.008,-0.003 c 0.81792,1.16885 1.30712,1.84269 1.46365,2.01584 l 0.71392,-2.36286 c 0.30722,-1.23513 0.7167,-1.93566 1.22977,-2.11327 0.49223,-0.1704 0.88652,-0.0996 1.18474,0.21202 0.37246,0.38927 0.40384,0.75452 0.0925,1.09655 z"
           id="text18-1-4-7"
           style="font-weight:bold;font-size:17.6389px;line-height:0;font-family:'Segoe Print';-inkscape-font-specification:'Segoe Print, Bold';text-align:center;letter-spacing:0px;text-anchor:middle;stroke-width:0.21762;stroke-linejoin:round"
           aria-label="Book"
           inkscape:path-effect="#path-effect20-0"
           inkscape:original-d="m 119.58541,191.80164 q 1.61058,0.56844 2.08428,1.36081 0.48232,0.79238 0.48232,1.55891 0,1.64504 -2.11012,3.38481 -2.11013,1.73116 -4.42695,1.73116 -1.29192,0 -1.29192,-0.78376 0,-1.29191 1.80007,-1.29191 h 0.42202 q 0.84405,0 2.12735,-0.97324 1.2833,-0.98185 1.2833,-1.98954 0,-0.61151 -0.52538,-1.08521 -0.52538,-0.48231 -1.40388,-0.48231 -0.0689,0 -0.6804,0.26699 -0.62012,0.267 -0.91295,0.267 -0.8096,0 -1.05937,-0.1981 -0.24116,-0.19809 -0.24116,-0.80098 0,-0.42203 1.757,-1.13688 0.99908,-0.39619 1.99816,-1.3522 0.99908,-0.96463 0.99908,-1.62781 0,-0.85266 -1.24024,-0.85266 -1.16272,0 -2.28238,0.25838 -1.11965,0.25838 -1.24023,0.63734 -0.12058,0.37896 -0.63734,3.94464 -0.51677,3.56567 -0.51677,4.11689 l -0.0861,1.16272 q -0.0689,0.8785 -0.4048,1.12827 -0.33589,0.25838 -0.76653,0.25838 -1.15411,0 -1.15411,-1.49 0,-0.23255 0.14642,-0.83544 0.37896,-1.55891 0.73208,-4.34082 0.36174,-2.78192 0.36174,-2.99724 0,-0.43063 -0.17226,-0.43063 l -0.23254,0.0172 q -0.25838,0.0258 -0.45648,-0.15503 -0.19809,-0.18948 -0.25838,-0.35312 -0.0603,-0.16364 -0.0603,-0.30145 0,-0.85266 2.39434,-1.61919 2.39435,-0.76654 5.02985,-0.76654 1.40387,0 2.27376,0.74931 0.8785,0.7407 0.8785,1.72255 0,0.70625 -0.55983,1.43833 -0.55982,0.72347 -2.04983,1.86035 z m 12.56599,2.6355 q -0.57705,2.01538 -2.19624,3.40204 -1.61059,1.37803 -3.22117,1.37803 -1.27469,0 -2.10151,-0.93017 -0.82682,-0.93879 -0.82682,-2.2996 0,-2.22209 1.51584,-4.37528 1.51584,-2.15319 3.67764,-2.15319 1.47278,0 2.38573,1.09382 0.91295,1.08521 0.91295,2.59244 0,0.65457 -0.14642,1.2833 z m -4.47862,-2.72163 q -0.60289,0.53399 -1.17995,1.70533 -0.57705,1.17133 -0.57705,2.35128 0,0.71485 0.25838,1.17994 0.267,0.46509 0.69763,0.46509 1.06798,0 2.22209,-1.26607 1.15411,-1.26608 1.15411,-2.84221 0,-0.88711 -0.37896,-1.45555 -0.37035,-0.57706 -1.04214,-0.57706 -0.63735,0 -1.1455,0.43925 z m 14.41773,2.72163 q -0.57705,2.01538 -2.19625,3.40204 -1.61058,1.37803 -3.22117,1.37803 -1.27468,0 -2.1015,-0.93017 -0.82683,-0.93879 -0.82683,-2.2996 0,-2.22209 1.51584,-4.37528 1.51585,-2.15319 3.67765,-2.15319 1.47278,0 2.38573,1.09382 0.91295,1.08521 0.91295,2.59244 0,0.65457 -0.14642,1.2833 z m -4.47863,-2.72163 q -0.60289,0.53399 -1.17994,1.70533 -0.57706,1.17133 -0.57706,2.35128 0,0.71485 0.25839,1.17994 0.26699,0.46509 0.69763,0.46509 1.06798,0 2.22209,-1.26607 1.1541,-1.26608 1.1541,-2.84221 0,-0.88711 -0.37896,-1.45555 -0.37034,-0.57706 -1.04214,-0.57706 -0.63734,0 -1.14549,0.43925 z m 14.27132,-0.10335 h 0.009 q 0,0 -0.0172,0.0172 -0.49954,0.2756 -0.8096,0.48231 -0.57705,0.38757 -1.16272,0.83544 -0.67179,0.51676 -1.00769,0.86988 -0.28422,0.29284 -0.28422,0.43064 0,0.15503 1.00769,1.2144 1.00769,1.05075 1.59336,1.50723 0.59428,0.45647 1.17133,0.45647 l 0.37896,-0.009 q 0.20671,0 0.32729,0.12919 0.12919,0.12058 0.12919,0.37035 0,0.35312 -0.43925,0.81821 -0.43925,0.46509 -1.50723,0.46509 -0.62873,0 -1.27469,-0.45648 -0.64595,-0.46508 -1.98093,-2.08428 -1.06798,-1.30053 -1.16272,-1.30053 -0.0603,0 -0.36173,0.31006 -0.30145,0.31006 -0.39619,0.4737 v 0.009 q -0.14642,0.71485 -0.14642,1.86896 0,0.57706 -0.34451,0.93879 -0.33589,0.36174 -0.82682,0.36174 -0.50815,0 -0.79237,-0.29284 -0.28422,-0.28422 -0.28422,-0.57705 0,-0.31006 0.21532,-1.36081 0.41341,-2.04122 0.69763,-5.41742 0.27561,-2.69579 0.48231,-4.20302 0.20671,-1.51584 0.37035,-1.98093 0.16364,-0.4737 0.50815,-0.74931 0.34451,-0.28422 0.7407,-0.28422 0.37896,0 0.60289,0.31867 0.23254,0.31006 0.23254,0.75792 0,0.55983 -0.72347,4.37528 l -0.2067,1.12827 h 0.009 q -0.37896,2.48908 -0.38757,2.87665 l 2.64411,-2.39434 q 2.02399,-1.95509 2.9714,-1.95509 0.91295,0 0.91295,0.73208 0,0.91295 -0.88712,1.31775 z"
           transform="matrix(0.91903473,0,0,0.91903473,-2.3691955,0.52353872)"
           inkscape:label="Book" />
        <path
           d="m 96.111559,163.5781 c 0.446436,-0.16357 0.831942,-0.0595 1.158115,0.31205 0.406114,0.46265 0.261659,1.27713 -0.440979,2.45481 -0.71078,1.18639 -1.690686,2.02482 -2.942288,2.5069 -1.116875,0.43019 -2.423617,0.51591 -3.91872,0.25301 -1.503686,-0.26441 -2.773999,-1.001 -3.801136,-2.20475 -1.040647,-1.21958 -1.678408,-2.74694 -1.91427,-4.56747 -0.232709,-1.79617 0.0046,-3.38159 0.701568,-4.75845 0.692665,-1.35818 1.719621,-2.24767 3.077258,-2.68009 0.801411,-0.25526 1.608053,-0.26386 2.422347,-0.0275 0.812257,0.23576 1.446093,0.61261 1.903679,1.13172 0.497046,0.56387 0.802892,0.98805 0.916925,1.27205 0.109933,0.27962 0.06989,0.56602 -0.120781,0.85963 -0.191349,0.29465 -0.396376,0.47951 -0.614868,0.55389 -0.224816,0.0765 -0.478883,0.0764 -0.762077,-6.2e-4 -0.283445,-0.0771 -0.524844,-0.22935 -0.723883,-0.45668 -0.13836,-0.15802 -0.288591,-0.40444 -0.450516,-0.73884 -0.167571,-0.33177 -0.339466,-0.59812 -0.515826,-0.79938 -0.296512,-0.33839 -0.584931,-0.4617 -0.86602,-0.37007 -0.865293,0.28205 -1.510893,0.98226 -1.935869,2.10896 -0.430009,1.14004 -0.542352,2.4301 -0.331513,3.87155 0.214945,1.44965 0.712879,2.63389 1.493971,3.54322 0.519157,0.60439 1.167795,1.03858 1.943926,1.30121 0.774605,0.2621 1.558844,0.24353 2.349914,-0.0539 0.463615,-0.17428 0.951967,-0.49803 1.463861,-0.96941 0.514526,-0.47051 0.907605,-0.99179 1.180514,-1.56351 0.272714,-0.57541 0.514606,-0.90066 0.726668,-0.97836 z m 9.808471,-5.11212 c 0.64433,1.24426 0.8097,2.44355 0.48977,3.60132 -0.32264,1.16467 -1.00035,1.94964 -2.03733,2.34723 -0.82748,0.31727 -1.75237,0.3117 -2.77229,-0.0192 -1.02721,-0.33677 -1.889405,-0.89915 -2.582965,-1.68477 -1.128328,-1.2781 -1.727054,-2.70961 -1.79935,-4.28345 -0.07137,-1.55352 0.601637,-2.56081 2.005548,-3.03257 0.946817,-0.31816 1.976827,-0.27498 3.093407,0.12673 1.10915,0.39587 2.03414,1.00515 2.77903,1.83056 0.32419,0.35924 0.59677,0.72816 0.81776,1.10699 z m -6.308298,-0.75413 c -0.126407,0.43499 -0.08557,1.04801 0.12383,1.84096 0.210581,0.79745 0.614048,1.53323 1.210588,2.20515 0.36211,0.40787 0.74587,0.71363 1.15073,0.91675 0.41024,0.20092 0.75527,0.24893 1.03474,0.14432 0.69013,-0.25834 1.0836,-0.88371 1.18285,-1.87052 0.0984,-0.97792 -0.2464,-1.90199 -1.03175,-2.77672 -0.44094,-0.49113 -0.92263,-0.85131 -1.44603,-1.08138 -0.52267,-0.23696 -0.99964,-0.28128 -1.43177,-0.1324 -0.411468,0.14176 -0.673328,0.39186 -0.78479,0.75093 z m 15.233658,-2.45587 c 0.64976,1.18365 0.84947,2.32006 0.59357,3.41231 -0.25806,1.09823 -0.86223,1.83381 -1.81657,2.19971 -0.76127,0.29188 -1.62561,0.27786 -2.59097,-0.0443 -0.97227,-0.32773 -1.79906,-0.86698 -2.47702,-1.61555 -1.10311,-1.21801 -1.71791,-2.57654 -1.84681,-4.06556 -0.12729,-1.47056 0.46231,-2.41835 1.75632,-2.85318 0.87306,-0.29338 1.8381,-0.24377 2.89808,0.1463 1.05291,0.3845 1.94167,0.96965 2.67004,1.75795 0.31697,0.34306 0.58599,0.69481 0.80708,1.05547 z m -5.92882,-0.76918 c -0.10133,0.41054 -0.0395,0.99093 0.18683,1.7429 0.22752,0.75605 0.63283,1.45538 1.216,2.09601 0.35397,0.38884 0.72425,0.68136 1.11031,0.87706 0.39102,0.19368 0.71527,0.24225 0.97248,0.14597 0.63526,-0.2378 0.97941,-0.8254 1.03487,-1.75773 0.055,-0.92426 -0.30253,-1.80182 -1.07038,-2.63675 -0.43115,-0.46882 -0.89544,-0.81404 -1.39377,-1.03643 -0.49789,-0.22889 -0.94561,-0.27498 -1.34393,-0.13775 -0.37922,0.13066 -0.61435,0.36514 -0.70467,0.70403 z m 12.05159,-4.2799 0.007,-0.002 -0.002,0.0177 c -0.13784,0.23072 -0.24142,0.42713 -0.31053,0.58895 -0.12763,0.30346 -0.24375,0.62406 -0.34832,0.96194 -0.119,0.39072 -0.18599,0.70898 -0.20062,0.95393 -0.0153,0.20468 0.0101,0.34234 0.076,0.4127 0.0742,0.0792 0.63964,0.29028 1.69376,0.63248 1.0466,0.3367 1.83468,0.56287 2.36592,0.67912 0.53466,0.1143 0.95425,0.11419 1.25896,1.2e-4 l 0.29283,-0.11888 c 0.10862,-0.0407 0.2254,-0.0402 0.35038,0.001 0.12534,0.0355 0.24768,0.11636 0.36712,0.2426 0.16895,0.17857 0.24993,0.42918 0.24286,0.7525 -0.007,0.32432 -0.29163,0.59457 -0.85591,0.81087 -0.33366,0.1279 -0.78323,0.14078 -1.34897,0.0381 -0.57132,-0.10734 -1.60901,-0.44194 -3.1164,-1.00523 -1.21265,-0.45489 -1.84657,-0.67334 -1.89892,-0.65427 -0.0333,0.0121 -0.0586,0.12867 -0.0759,0.34996 -0.0173,0.22176 -0.0127,0.38493 0.0138,0.48919 l 0.007,0.007 c 0.26487,0.40147 0.67752,0.90308 1.23846,1.50518 0.28093,0.30154 0.41439,0.58336 0.40013,0.84571 -0.01,0.26116 -0.15065,0.44434 -0.42391,0.54925 -0.2836,0.10889 -0.57704,0.11662 -0.87995,0.0229 -0.29898,-0.0892 -0.52033,-0.2113 -0.66378,-0.36605 -0.15179,-0.16374 -0.4239,-0.54557 -0.81545,-1.14414 -0.75988,-1.15641 -1.87396,-2.63988 -3.33701,-4.44495 -1.13231,-1.44046 -1.99495,-2.56183 -2.59168,-3.36878 -0.59848,-0.80818 -0.95973,-1.34366 -1.08533,-1.60847 -0.12944,-0.2687 -0.16074,-0.50325 -0.0942,-0.70366 0.0624,-0.20429 0.20566,-0.34141 0.42968,-0.41162 0.21386,-0.067 0.45812,-0.0406 0.73297,0.0792 0.27548,0.11389 0.51787,0.28281 0.72742,0.50696 0.26218,0.28044 1.08716,1.44507 2.48608,3.51042 l 0.63145,0.92125 0.008,-0.003 c 0.97719,1.3478 1.55888,2.12574 1.74028,2.32719 l 0.47639,-2.60464 c 0.18052,-1.36347 0.52617,-2.12435 1.03698,-2.29624 0.48992,-0.16487 0.90536,-0.0658 1.24835,0.29709 0.42837,0.45319 0.5016,0.86223 0.21805,1.22799 z"
           id="text18-1-6"
           style="font-weight:bold;font-size:17.6389px;line-height:0;font-family:'Segoe Print';-inkscape-font-specification:'Segoe Print, Bold';text-align:center;letter-spacing:0px;text-anchor:middle;stroke-width:0.21762;stroke-linejoin:round"
           aria-label="Cook"
           inkscape:path-effect="#path-effect19-4"
           inkscape:original-d="m 95.082871,165.08312 q 0.654569,0 0.654569,0.63735 0,0.79237 -1.903416,1.95509 -1.894804,1.15411 -3.66903,1.15411 -1.567519,0 -2.885269,-1.02492 -1.31775,-1.02491 -1.31775,-2.98862 0,-1.99816 1.378039,-4.43556 1.378039,-2.43741 3.410647,-3.97048 2.04122,-1.53307 3.979088,-1.53307 1.154108,0 1.843127,0.68902 0.68902,0.68902 0.68902,1.61059 0,0.99907 -0.15503,1.43832 -0.155029,0.43064 -0.663181,0.7407 -0.508152,0.31006 -0.826823,0.31006 -0.327285,0 -0.568442,-0.23255 -0.241156,-0.23254 -0.241156,-0.62873 0,-0.2756 0.146416,-0.80098 0.137804,-0.52538 0.137804,-0.8785 0,-0.59428 -0.404799,-0.59428 -1.240235,0 -2.781916,1.32636 -1.541682,1.32636 -2.644113,3.29868 -1.093818,1.96371 -1.093818,3.47094 0,0.99908 0.577054,1.6881 0.577053,0.68902 1.688097,0.68902 0.654569,0 1.645035,-0.35313 0.999078,-0.35312 1.843127,-0.95601 0.852662,-0.61151 1.16272,-0.61151 z m 11.084599,-1.37803 q -0.57705,2.01538 -2.19625,3.40203 -1.61058,1.37804 -3.22116,1.37804 -1.274689,0 -2.101512,-0.93018 -0.826823,-0.93879 -0.826823,-2.2996 0,-2.22209 1.515843,-4.37527 1.515842,-2.15319 3.677642,-2.15319 1.47278,0 2.38573,1.09382 0.91295,1.0852 0.91295,2.59243 0,0.65457 -0.14642,1.2833 z m -4.47862,-2.72163 q -0.6029,0.53399 -1.17995,1.70532 -0.577053,1.17133 -0.577053,2.35128 0,0.71486 0.258383,1.17995 0.26699,0.46508 0.69763,0.46508 1.06798,0 2.22209,-1.26607 1.15411,-1.26607 1.15411,-2.8422 0,-0.88712 -0.37896,-1.45556 -0.37035,-0.57705 -1.04215,-0.57705 -0.63734,0 -1.14549,0.43925 z m 14.41773,2.72163 q -0.57705,2.01538 -2.19625,3.40203 -1.61058,1.37804 -3.22117,1.37804 -1.27468,0 -2.10151,-0.93018 -0.82682,-0.93879 -0.82682,-2.2996 0,-2.22209 1.51584,-4.37527 1.51585,-2.15319 3.67765,-2.15319 1.47278,0 2.38573,1.09382 0.91295,1.0852 0.91295,2.59243 0,0.65457 -0.14642,1.2833 z m -4.47863,-2.72163 q -0.60289,0.53399 -1.17994,1.70532 -0.57706,1.17133 -0.57706,2.35128 0,0.71486 0.25839,1.17995 0.26699,0.46508 0.69763,0.46508 1.06798,0 2.22209,-1.26607 1.1541,-1.26607 1.1541,-2.8422 0,-0.88712 -0.37896,-1.45556 -0.37034,-0.57705 -1.04214,-0.57705 -0.63734,0 -1.14549,0.43925 z m 14.27132,-0.10335 h 0.009 q 0,0 -0.0172,0.0172 -0.49954,0.27561 -0.8096,0.48231 -0.57705,0.38758 -1.16272,0.83544 -0.6718,0.51677 -1.00769,0.86989 -0.28422,0.29283 -0.28422,0.43063 0,0.15503 1.00769,1.2144 1.00769,1.05076 1.59336,1.50723 0.59428,0.45648 1.17133,0.45648 l 0.37896,-0.009 q 0.20671,0 0.32728,0.1292 0.1292,0.12057 0.1292,0.37034 0,0.35313 -0.43925,0.81821 -0.43925,0.46509 -1.50723,0.46509 -0.62873,0 -1.27469,-0.45647 -0.64596,-0.46509 -1.98093,-2.08429 -1.06798,-1.30052 -1.16272,-1.30052 -0.0603,0 -0.36174,0.31006 -0.30144,0.31006 -0.39618,0.4737 v 0.009 q -0.14642,0.71486 -0.14642,1.86897 0,0.57705 -0.34451,0.93879 -0.3359,0.36173 -0.82682,0.36173 -0.50816,0 -0.79238,-0.29283 -0.28422,-0.28422 -0.28422,-0.57706 0,-0.31005 0.21532,-1.36081 0.41341,-2.04122 0.69763,-5.41742 0.27561,-2.69578 0.48232,-4.20301 0.2067,-1.51585 0.37035,-1.98094 0.16364,-0.4737 0.50815,-0.7493 0.34451,-0.28423 0.74069,-0.28423 0.37896,0 0.6029,0.31868 0.23254,0.31005 0.23254,0.75792 0,0.55983 -0.72347,4.37527 l -0.20671,1.12827 h 0.009 q -0.37896,2.48908 -0.38758,2.87666 l 2.64412,-2.39435 q 2.02399,-1.95509 2.97139,-1.95509 0.91295,0 0.91295,0.73209 0,0.91295 -0.88711,1.31775 z"
           transform="matrix(0.91903473,0,0,0.91903473,7.0015875,13.934934)"
           inkscape:label="Cook" />
      </g>
      <g
         id="g3"
         inkscape:label="page_lines">
        <path
           style="fill:#000000;fill-opacity:1;stroke:#000000;stroke-width:0.3;stroke-linecap:round;stroke-linejoin:round;stroke-dasharray:none;stroke-opacity:1"
           d="m 138.85627,194.66086 -6.42127,2.61972"
           id="path21" />
        <path
           style="fill:#000000;fill-opacity:1;stroke:#000000;stroke-width:0.3;stroke-linecap:round;stroke-linejoin:round;stroke-dasharray:none;stroke-opacity:1"
           d="m 125.92278,201.1625 -5.12389,2.11764"
           id="path21-4" />
        <path
           style="fill:#000000;fill-opacity:1;stroke:#000000;stroke-width:0.3;stroke-linecap:round;stroke-linejoin:round;stroke-dasharray:none;stroke-opacity:1"
           d="m 111.91202,209.99831 -5.79167,2.41529"
           id="path21-4-9" />
        <path
           style="fill:#000000;fill-opacity:1;stroke:#000000;stroke-width:0.3;stroke-linecap:round;stroke-linejoin:round;stroke-dasharray:none;stroke-opacity:1"
           d="m 122.26344,207.42124 -7.55238,3.10089"
           id="path21-2" />
        <path
           style="fill:#000000;fill-opacity:1;stroke:#000000;stroke-width:0.3;stroke-linecap:round;stroke-linejoin:round;stroke-dasharray:none;stroke-opacity:1"
           d="m 114.50294,206.073 -7.03604,2.87769"
           id="path21-8" />
        <path
           style="fill:#000000;fill-opacity:1;stroke:#000000;stroke-width:0.3;stroke-linecap:round;stroke-linejoin:round;stroke-dasharray:none;stroke-opacity:1"
           d="m 100.18997,207.9628 -7.77057,3.1817"
           id="path21-8-7" />
        <path
           style="fill:#000000;fill-opacity:1;stroke:#000000;stroke-width:0.3;stroke-linecap:round;stroke-linejoin:round;stroke-dasharray:none;stroke-opacity:1"
           d="m 96.92799,214.6152 -8.23706,3.38049"
           id="path21-8-2" />
        <path
           style="fill:#000000;fill-opacity:1;stroke:#000000;stroke-width:0.3;stroke-linecap:round;stroke-linejoin:round;stroke-dasharray:none;stroke-opacity:1"
           d="m 137.60406,197.66268 -13.27192,5.43874"
           id="path22" />
        <path
           style="fill:#000000;fill-opacity:1;stroke:#000000;stroke-width:0.3;stroke-linecap:round;stroke-linejoin:round;stroke-dasharray:none;stroke-opacity:1"
           d="m 116.91517,207.03113 -12.52367,5.11191"
           id="path22-2" />
        <path
           style="fill:#000000;fill-opacity:1;stroke:#000000;stroke-width:0.3;stroke-linecap:round;stroke-linejoin:round;stroke-dasharray:none;stroke-opacity:1"
           d="m 126.16518,199.33816 -13.37315,5.4627"
           id="path22-28" />
        <path
           style="fill:#000000;fill-opacity:1;stroke:#000000;stroke-width:0.3;stroke-linecap:round;stroke-linejoin:round;stroke-dasharray:none;stroke-opacity:1"
           d="m 137.41881,199.8309 -16.76101,6.86415"
           id="path22-1" />
        <path
           style="fill:#000000;fill-opacity:1;stroke:#000000;stroke-width:0.3;stroke-linecap:round;stroke-linejoin:round;stroke-dasharray:none;stroke-opacity:1"
           d="m 105.21353,214.27549 -20.013649,8.18846"
           id="path22-1-0" />
        <path
           style="fill:#000000;fill-opacity:1;stroke:#000000;stroke-width:0.3;stroke-linecap:round;stroke-linejoin:round;stroke-dasharray:none;stroke-opacity:1"
           d="m 101.8395,214.09771 -16.628189,6.79065"
           id="path22-1-4" />
        <path
           style="fill:#000000;fill-opacity:1;stroke:#000000;stroke-width:0.3;stroke-linecap:round;stroke-linejoin:round;stroke-dasharray:none;stroke-opacity:1"
           d="M 101.05717,212.18821 85.744418,218.4534"
           id="path22-1-02" />
        <path
           style="fill:#000000;fill-opacity:1;stroke:#000000;stroke-width:0.3;stroke-linecap:round;stroke-linejoin:round;stroke-dasharray:none;stroke-opacity:1"
           d="M 104.50595,209.56939 86.330294,217.0494"
           id="path22-1-1" />
        <path
           style="fill:#000000;fill-opacity:1;stroke:#000000;stroke-width:0.3;stroke-linecap:round;stroke-linejoin:round;stroke-dasharray:none;stroke-opacity:1"
           d="m 101.45707,209.45581 -14.254005,5.82804"
           id="path22-1-8" />
        <path
           style="fill:#000000;fill-opacity:1;stroke:#000000;stroke-width:0.3;stroke-linecap:round;stroke-linejoin:round;stroke-dasharray:none;stroke-opacity:1"
           d="m 95.15173,217.71368 -9.462013,3.87659"
           id="path21-8-4" />
        <path
           style="fill:#000000;fill-opacity:1;stroke:#000000;stroke-width:0.3;stroke-linecap:round;stroke-linejoin:round;stroke-dasharray:none;stroke-opacity:1"
           d="m 98.43785,209.93043 -9.98582,4.09378"
           id="path21-8-1" />
        <path
           style="fill:#000000;fill-opacity:1;stroke:#000000;stroke-width:0.3;stroke-linecap:round;stroke-linejoin:round;stroke-dasharray:none;stroke-opacity:1"
           d="m 108.55591,205.66539 -6.51423,2.73737"
           id="path21-4-2" />
      </g>
    </g>
  </g>
</svg>
