<?xml version="1.0" encoding="UTF-8" standalone="no"?>
<!-- Created with Inkscape (http://www.inkscape.org/) -->

<svg
   width="39.41803mm"
   height="234.04599mm"
   viewBox="0 0 39.41803 234.04599"
   version="1.1"
   id="svg1"
   inkscape:version="1.3.2 (091e20e, 2023-11-25, custom)"
   sodipodi:docname="MCMC_falling.svg"
   xmlns:inkscape="http://www.inkscape.org/namespaces/inkscape"
   xmlns:sodipodi="http://sodipodi.sourceforge.net/DTD/sodipodi-0.dtd"
   xmlns="http://www.w3.org/2000/svg"
   xmlns:svg="http://www.w3.org/2000/svg">
  <sodipodi:namedview
     id="namedview1"
     pagecolor="#ffffff"
     bordercolor="#999999"
     borderopacity="1"
     inkscape:showpageshadow="2"
     inkscape:pageopacity="0"
     inkscape:pagecheckerboard="0"
     inkscape:deskcolor="#d1d1d1"
     inkscape:document-units="mm"
     inkscape:zoom="1.048534"
     inkscape:cx="-345.24395"
     inkscape:cy="511.66679"
     inkscape:window-width="2560"
     inkscape:window-height="1377"
     inkscape:window-x="-8"
     inkscape:window-y="-8"
     inkscape:window-maximized="1"
     inkscape:current-layer="layer1" />
  <defs
     id="defs1" />
  <g
     inkscape:label="Layer 1"
     inkscape:groupmode="layer"
     id="layer1"
     transform="translate(-170.34946,-0.48171699)">
    <g
       id="g4"
       transform="translate(111.53271,-97.149533)">
      <path
         d="m 83.613684,110.23578 q 0.08476,0.15241 0.09046,0.28226 0.0057,0.12985 -0.02385,0.34582 -0.01685,0.20891 -0.02949,0.36558 -0.01264,0.15668 0.04386,0.25829 0.01413,0.0254 0.02404,0.10303 0.02262,0.0706 0.06784,0.21169 0.06364,0.26392 0.09759,0.44457 0.02689,0.16796 0.04951,0.23852 0.120201,0.51514 0.302485,0.9625 0.182285,0.44736 0.46482,0.95537 0.522688,0.93982 0.983291,1.94743 0.243,0.49674 0.476157,1.06546 0.238792,0.54896 0.500197,1.16849 0.26141,0.61953 0.494559,1.18826 0.245855,0.56166 0.457817,1.09229 0.405524,0.93846 0.891533,1.93193 0.491645,0.97371 1.070841,2.01514 0.388485,0.69852 1.021341,1.77662 0.625793,1.0654 1.442288,2.47371 0.237182,0.0677 0.681864,0.11969 0.482788,0.0309 0.727032,0.11121 0.249882,0.0606 0.398212,0.3273 0.268408,0.48261 0.01462,1.22233 -0.266488,0.74677 -0.749152,1.01515 -1.282871,0.71333 -2.675345,-0.77379 -1.419303,-1.50545 -2.415237,-3.2962 -0.317851,-0.57151 -0.55949,-1.1854 -0.241638,-0.6139 -0.503048,-1.23342 -0.187921,-0.4276 -0.535513,-1.23199 -0.341953,-0.82416 -0.85064,-2.03782 -0.508685,-1.21365 -0.777154,-1.84588 -0.275537,-0.64493 -0.319336,-0.7536 -0.03674,-0.096 -0.13705,-0.30623 -0.08761,-0.21733 -0.233156,-0.56873 -0.278383,-0.70985 -0.508686,-1.21365 -0.230301,-0.5038 -0.385695,-0.78321 -0.03674,-0.096 -0.07912,-0.17216 -0.02968,-0.0833 -0.100314,-0.21027 -0.04944,-0.0889 -0.310665,-0.25958 -0.05347,0.41217 -0.126645,0.96832 -0.07317,0.55615 -0.166052,1.25628 -0.198458,1.40732 -0.308188,2.31635 -0.06475,0.4517 -0.129496,0.90339 -0.05205,0.44464 -0.116795,0.89634 -0.06475,0.45169 -0.149199,1.04737 -0.07881,0.57591 -0.163202,1.3212 -0.189907,1.6021 -0.345922,3.23524 -0.0028,0.0847 -0.02107,0.26113 -0.01828,0.17644 -0.04498,0.45733 -0.04635,0.57449 -0.06326,0.63378 -0.23929,1.66281 -0.868612,2.29541 -1.417136,0.3224 -2.285496,-0.19242 -0.22733,-0.13965 -0.401002,-0.24261 -0.160973,-0.11003 -0.307813,-0.19466 -0.153911,-0.0973 -0.300751,-0.18195 -0.15391,-0.0973 -0.327579,-0.2003 -0.501252,-0.30326 -0.909317,-0.55856 -0.408064,-0.25531 -0.735643,-0.45561 -0.642457,-0.40765 -1.314592,-0.89856 -0.679198,-0.50361 -1.335844,-1.08628 -0.420828,-0.39786 -0.691962,-0.64617 -0.278198,-0.26101 -0.406701,-0.37246 -0.135566,-0.12415 -0.353045,-0.33578 -0.21748,-0.21163 -0.516864,-0.51074 -0.299389,-0.29911 -0.631243,-0.59679 -0.319152,-0.30475 -0.65807,-0.61513 -0.699026,-0.65887 -0.759746,-0.70825 0.108863,0.40505 0.247465,1.04298 0.151304,0.63086 0.319586,1.35206 0.173919,0.70142 0.354902,1.41555 0.180983,0.71413 0.342139,1.27301 0.155517,0.57864 0.295483,1.09941 0.145605,0.50102 0.270019,0.96393 0.221999,0.90748 0.729569,2.83675 0.313885,1.22221 0.893081,2.26363 0.120077,0.21591 0.363021,0.56303 0.235881,0.33442 0.614388,0.8057 0.371447,0.45857 0.63558,0.84379 0.264134,0.38522 0.433654,0.69003 0.183648,0.33021 0.116173,1.01621 -0.07454,0.67331 -0.404781,0.85693 -0.114315,0.0636 -0.357075,0.16529 -0.242758,0.10172 -0.369775,0.17235 -0.711295,0.3955 -1.502082,-0.27885 -0.783724,-0.66166 -1.292286,-1.57608 -0.141268,-0.25401 -0.289722,-0.81995 -0.07776,-0.28931 -0.186621,-0.69436 -0.115926,-0.41775 -0.248828,-0.92583 -0.120201,-0.51513 -0.197959,-0.80445 -0.07776,-0.28932 -0.09331,-0.34719 -0.320949,-1.2349 -0.565563,-2.21295 -0.251679,-0.99075 -0.44115,-1.75004 -0.189471,-0.7593 -0.394494,-1.57645 -0.212086,-0.82986 -0.441149,-1.75005 -0.254529,-1.05567 -0.42281,-1.77686 -0.162643,-0.74096 -0.387369,-1.41414 -0.286872,-0.75502 -0.370269,-1.02457 -0.113079,-0.35282 -0.182407,-0.74659 -0.06933,-0.39378 -0.113262,-0.80167 -0.101984,-0.8412 0.329873,-1.08133 0.939924,-0.52263 1.597686,-0.65558 0.637997,-0.13859 1.37364,0.31701 0.340281,0.19323 0.636818,0.42742 0.289475,0.22148 0.55497,0.48955 0.258433,0.25537 0.586074,0.60528 0.320578,0.33721 0.704726,0.78872 0.199136,0.23845 0.442017,0.43596 0.242881,0.1975 0.533781,0.45145 2.637919,2.44075 6.232678,4.29959 0.02819,-0.0988 0.236934,-0.53081 0.09449,-0.21882 0.152297,-0.38399 0.07051,-0.17222 0.09021,-0.3162 0.05775,-0.31478 0.09994,-0.68743 0.03513,-0.38535 0.02931,-0.81443 0.01376,-0.8723 0.02615,-1.62744 0.02509,-0.7622 0.189969,-1.45248 0.08315,-0.32891 0.166237,-0.80743 0.08873,-0.49829 0.190092,-1.15325 0.101366,-0.65497 0.177392,-1.14619 0.08873,-0.49828 0.146472,-0.81307 0.08173,-0.36137 0.132408,-0.68885 0.06339,-0.33454 0.10843,-0.64226 0.04504,-0.30772 0.09288,-0.70013 0.06054,-0.39947 0.123857,-0.88363 0.03662,-0.20327 0.121132,-0.64933 0.04226,-0.22303 0.0676,-0.38677 0.03098,-0.18351 0.04504,-0.30772 0.05205,-0.44464 0.09275,-0.99936 0.05341,-0.56179 0.07429,-1.27177 0.03358,-0.71704 0.07572,-1.2393 0.03507,-0.53496 0.07163,-0.88784 0.01264,-0.15668 0.203165,-0.26262 0.170762,-0.11158 0.52647,-0.15972 0.355709,-0.0481 0.721332,-0.0186 0.37126,0.01 0.667736,0.0943 0.296476,0.0846 0.355833,0.25109 z"
         id="text28-4-6-7"
         style="font-size:29.7631px;line-height:0;font-family:'Segoe Script';-inkscape-font-specification:'Segoe Script, Normal';text-align:center;letter-spacing:1.86019px;text-anchor:middle;fill:#ffd04b;stroke-width:0.132292;stroke-linecap:round;stroke-linejoin:round"
         inkscape:label="M1"
         aria-label="M" />
      <path
         style="fill:#000000;stroke:#ffda71;stroke-width:0.3;stroke-linecap:round;stroke-linejoin:round;stroke-dasharray:none;stroke-opacity:1"
         d="m 72.466972,119.81581 v -3.9615"
         id="path1-4-8-0" />
      <path
         style="fill:#000000;stroke:#ffda71;stroke-width:0.3;stroke-linecap:round;stroke-linejoin:round;stroke-dasharray:none;stroke-opacity:1"
         d="m 93.353,127.84458 v -8.04261"
         id="path1-4-3" />
      <path
         style="fill:#000000;stroke:#ffda71;stroke-width:0.3;stroke-linecap:round;stroke-linejoin:round;stroke-dasharray:none;stroke-opacity:1"
         d="M 89.09697,120.27083 V 97.78125"
         id="path1-7" />
      <path
         style="fill:#000000;stroke:#ffda71;stroke-width:0.3;stroke-linecap:round;stroke-linejoin:round;stroke-dasharray:none;stroke-opacity:1"
         d="M 74.148013,124.25374 V 103.88736"
         id="path1-0" />
    </g>
    <g
       id="g2"
       transform="translate(66.735827,-12.322093)">
      <path
         d="m 136.53562,164.39135 q -0.0956,0.14583 -0.20798,0.21119 -0.11234,0.0654 -0.31739,0.13945 -0.19286,0.0821 -0.33751,0.14364 -0.14465,0.0616 -0.20841,0.15877 -0.0159,0.0243 -0.0801,0.0691 -0.052,0.0528 -0.15601,0.15838 -0.20425,0.17888 -0.34846,0.29285 -0.13626,0.10182 -0.18831,0.15458 -0.40048,0.34564 -0.71208,0.71479 -0.31159,0.36917 -0.63037,0.85526 -0.58975,0.89927 -1.26836,1.77503 -0.32718,0.44583 -0.72264,0.9164 -0.37534,0.46639 -0.80274,0.98553 -0.42739,0.51915 -0.82285,0.98972 -0.38331,0.47854 -0.75492,0.91262 -0.64294,0.79488 -1.29724,1.68658 -0.63418,0.88751 -1.28768,1.884 -0.43833,0.66838 -1.09937,1.72943 -0.65308,1.04891 -1.52142,2.42586 0.0502,0.24146 0.2106,0.65941 0.19685,0.44187 0.23909,0.69547 0.0624,0.24943 -0.105,0.50462 -0.30284,0.46179 -1.07589,0.58053 -0.78521,0.11076 -1.24704,-0.19205 -1.22751,-0.80484 -0.55688,-2.72849 0.67443,-1.95592 1.79813,-3.66939 0.35863,-0.54685 0.79019,-1.04589 0.43155,-0.49904 0.85892,-1.01821 0.29148,-0.36496 0.84258,-1.04629 0.57122,-0.68551 1.41002,-1.69953 0.83879,-1.01402 1.27413,-1.54533 0.44334,-0.54345 0.51922,-0.63272 0.0679,-0.0771 0.20763,-0.26354 0.15185,-0.17848 0.39552,-0.47054 0.4995,-0.57614 0.8388,-1.01402 0.33931,-0.43788 0.51464,-0.70523 0.0679,-0.0771 0.11573,-0.15003 0.0599,-0.065 0.13964,-0.18648 0.0558,-0.0851 0.0857,-0.39564 -0.38991,0.14403 -0.9165,0.33747 -0.52659,0.19344 -1.18986,0.43629 -1.33868,0.47773 -2.19481,0.80265 -0.43016,0.1524 -0.86032,0.3048 -0.418,0.16037 -0.84816,0.31278 -0.43015,0.1524 -0.99699,0.35421 -0.54672,0.19762 -1.24604,0.46896 -1.50725,0.57574 -3.02625,1.19591 -0.0763,0.0368 -0.24107,0.1026 -0.16477,0.0657 -0.42597,0.17252 -0.53039,0.22571 -0.59075,0.23827 -1.58396,0.5602 -2.4365,0.29663 -0.9436,-1.10526 -0.8908,-2.1133 0.0181,-0.26615 0.0287,-0.46776 0.0227,-0.19364 0.0295,-0.36298 0.0147,-0.18149 0.0215,-0.35082 0.0147,-0.18149 0.0253,-0.3831 0.0359,-0.5847 0.0725,-1.06462 0.0367,-0.47991 0.062,-0.86301 0.0628,-0.75822 0.18549,-1.58139 0.1307,-0.83532 0.34189,-1.68738 0.157,-0.55741 0.25104,-0.91281 0.10201,-0.36756 0.14107,-0.53311 0.047,-0.17768 0.13348,-0.46856 0.0865,-0.29086 0.21239,-0.69487 0.12592,-0.40401 0.2355,-0.83612 0.12174,-0.42413 0.23929,-0.86839 0.259,-0.92497 0.27455,-1.00167 -0.30823,0.28449 -0.80892,0.70344 -0.48853,0.42693 -1.04919,0.91083 -0.54054,0.47971 -1.08904,0.97159 -0.5485,0.49186 -0.9687,0.89409 -0.44032,0.4064 -0.83661,0.77216 -0.37616,0.36159 -0.72841,0.68671 -0.70073,0.61797 -2.1739,1.9633 -0.93682,0.84548 -1.59032,1.84197 -0.13548,0.20659 -0.33014,0.58291 -0.18668,0.36417 -0.42837,0.91819 -0.2337,0.54188 -0.45227,0.95466 -0.21856,0.41278 -0.40983,0.70443 -0.20721,0.31596 -0.84616,0.57475 -0.631,0.24663 -0.94699,0.0394 -0.10939,-0.0717 -0.31221,-0.23946 -0.20282,-0.16773 -0.32436,-0.24742 -0.68061,-0.44625 -0.45049,-1.45967 0.22215,-1.00127 0.79596,-1.87624 0.15939,-0.24305 0.59174,-0.6373 0.22019,-0.20318 0.52839,-0.48768 0.31618,-0.29664 0.70451,-0.65025 0.40047,-0.34564 0.62062,-0.54885 0.22019,-0.20318 0.2642,-0.24384 0.94479,-0.85763 1.69751,-1.5284 0.7607,-0.68292 1.34527,-1.20328 0.58456,-0.52036 1.21316,-1.08135 0.63657,-0.57316 1.34526,-1.20328 0.81688,-0.7156 1.37754,-1.1995 0.58078,-0.48808 1.07271,-0.99967 0.53555,-0.60463 0.73558,-0.80365 0.26004,-0.26394 0.5766,-0.5082 0.31659,-0.24425 0.65749,-0.47255 0.69773,-0.48092 1.11096,-0.20998 0.89936,0.58968 1.32254,1.11044 0.41901,0.50063 0.35704,1.36364 -0.0131,0.39107 -0.0829,0.76241 -0.0618,0.35919 -0.17593,0.71878 -0.10619,0.34744 -0.26399,0.80006 -0.14983,0.44047 -0.37139,0.99031 -0.11877,0.28706 -0.18091,0.59387 -0.0622,0.3068 -0.15201,0.68232 -0.93702,3.46938 -0.9143,7.5159 0.10065,-0.0209 0.58019,-0.0367 0.23768,-0.0179 0.41083,-0.0434 0.18529,-0.0175 0.32196,-0.0669 0.30564,-0.095 0.6553,-0.2307 0.35763,-0.14782 0.73499,-0.35221 0.77904,-0.39286 1.45366,-0.73253 0.68677,-0.3317 1.37474,-0.50621 0.32995,-0.0791 0.79238,-0.22771 0.48256,-0.1528 1.10976,-0.36716 0.62721,-0.21436 1.09761,-0.37513 0.48256,-0.1528 0.78819,-0.24783 0.35804,-0.0954 0.67164,-0.2026 0.32575,-0.0992 0.61923,-0.20221 0.29348,-0.10299 0.66327,-0.24285 0.38194,-0.13188 0.84019,-0.30062 0.19705,-0.0619 0.63139,-0.19423 0.21717,-0.0661 0.37397,-0.11974 0.17692,-0.0578 0.29348,-0.10299 0.41801,-0.16037 0.92826,-0.3819 0.5224,-0.21357 1.16096,-0.52474 0.65072,-0.30322 1.13287,-0.50841 0.49013,-0.21735 0.81968,-0.34883 0.14465,-0.0616 0.32694,0.058 0.17812,0.0994 0.38594,0.39206 0.2078,0.29265 0.35145,0.63013 0.16378,0.33329 0.22654,0.6351 0.0628,0.30181 -0.0572,0.43171 z"
         id="text28-4-0-5-5"
         style="font-size:29.7631px;line-height:0;font-family:'Segoe Script';-inkscape-font-specification:'Segoe Script, Normal';text-align:center;letter-spacing:1.86019px;text-anchor:middle;fill:#ffd04b;stroke-width:0.132292;stroke-linecap:round;stroke-linejoin:round"
         inkscape:label="M2"
         aria-label="M" />
      <path
         style="fill:#000000;stroke:#ffda71;stroke-width:0.3;stroke-linecap:round;stroke-linejoin:round;stroke-dasharray:none;stroke-opacity:1"
         d="M 135.77822,160.3375 V 137.84792"
         id="path1" />
      <path
         style="fill:#000000;stroke:#ffda71;stroke-width:0.3;stroke-linecap:round;stroke-linejoin:round;stroke-dasharray:none;stroke-opacity:1"
         d="m 132.1277,162.03906 v -8.04261"
         id="path1-4" />
      <path
         style="fill:#000000;stroke:#ffda71;stroke-width:0.3;stroke-linecap:round;stroke-linejoin:round;stroke-dasharray:none;stroke-opacity:1"
         d="M 120.56024,154.50628 V 136.2631"
         id="path1-9" />
      <path
         style="fill:#000000;stroke:#ffda71;stroke-width:0.3;stroke-linecap:round;stroke-linejoin:round;stroke-dasharray:none;stroke-opacity:1"
         d="M 137.44629,156.12061 V 152.1591"
         id="path1-4-8-04" />
      <path
         style="fill:#000000;stroke:#ffda71;stroke-width:0.299999;stroke-linecap:round;stroke-linejoin:round;stroke-dasharray:none;stroke-opacity:1"
         d="m 119.39452,152.09684 v -6.71919"
         id="path1-4-8-01-9-8" />
    </g>
    <g
       id="g3"
       transform="translate(99.380794,-57.473208)">
      <path
         d="m 110.2581,149.03037 q -0.25935,0.86285 -1.82306,1.77365 -0.38849,0.23222 -0.93708,0.49219 -0.53468,0.26415 -1.1292,0.52549 -0.59034,0.24741 -1.19461,0.49064 -0.59034,0.24742 -1.1041,0.44199 -1.64569,0.62818 -3.38318,1.10737 -1.737491,0.4792 -3.435894,0.72735 -1.698394,0.24815 -3.308952,0.20404 -1.596633,-0.0399 -2.974539,-0.45414 -1.503154,-0.45188 -2.486941,-1.21803 -0.983777,-0.76616 -1.482998,-1.78118 -0.485315,-1.01084 -0.512539,-2.23298 -0.02304,-1.23606 0.391085,-2.61384 0.362592,-1.25671 1.016033,-2.4715 0.667386,-1.21059 1.531003,-2.31668 0.863618,-1.10608 1.892799,-2.05617 1.033375,-0.96401 2.137628,-1.70943 0.667012,-0.45199 1.463466,-0.88024 0.800637,-0.44216 1.644397,-0.82584 0.857684,-0.37949 1.704186,-0.6713 0.850675,-0.30572 1.635881,-0.49456 0.506755,-0.1208 1.275215,-0.25397 0.76848,-0.13317 1.59398,-0.20368 0.82551,-0.0705 1.60781,-0.0478 0.7865,0.009 1.31539,0.16781 0.84901,0.25523 1.31241,0.53111 0.48151,0.26615 0.78756,0.66164 0.13911,0.19357 0.28787,0.55695 0.16686,0.35365 0.27106,0.76434 0.1223,0.40095 0.1569,0.79072 0.0527,0.38003 -0.0184,0.61662 -0.0711,0.23659 -0.43604,0.64282 -0.36491,0.40623 -0.81197,0.83329 -0.44287,0.41315 -0.86901,0.77062 -0.42195,0.34357 -0.62525,0.46455 -0.75889,0.45471 -1.41304,0.25806 -0.55673,-0.16737 -0.77645,-0.59761 -0.20162,-0.43997 -0.0469,-0.9549 0.0544,-0.18092 0.3761,-0.49392 0.32589,-0.32691 0.95944,-0.66756 0.63354,-0.34065 1.0193,-0.66475 0.40385,-0.33382 0.51528,-0.45207 -0.2198,-0.27852 -0.58997,-0.5112 -0.37016,-0.23267 -0.71811,-0.33727 -0.50106,-0.15063 -1.30984,-0.1358 -0.80458,9.2e-4 -1.69277,0.12845 -0.87426,0.13172 -1.74578,0.3553 -0.853419,0.21386 -1.475783,0.46682 -1.78913,0.75199 -3.409954,1.75183 -1.620823,0.99985 -2.911949,2.41748 -0.525086,0.5857 -1.043256,1.24935 -0.500072,0.65391 -0.938913,1.35659 -0.438841,0.70267 -0.79418,1.43044 -0.33723,0.71805 -0.546384,1.4139 -0.246803,0.8211 -0.2792,1.58526 -0.01848,0.76834 0.258202,1.41297 0.276693,0.64464 0.884759,1.1461 0.621981,0.50564 1.651921,0.81527 1.113453,0.33472 2.374606,0.38001 1.261162,0.0453 2.571145,-0.12236 1.328082,-0.17738 2.670154,-0.5023 1.346262,-0.33884 2.611832,-0.76263 1.27949,-0.41961 2.44763,-0.87269 1.16813,-0.45308 2.14416,-0.87287 0.39959,-0.16819 0.84376,-0.38368 0.45808,-0.2113 0.90225,-0.42679 0.44416,-0.21549 0.8605,-0.43934 0.43024,-0.21968 0.76025,-0.40879 0.53011,0.50838 0.35023,1.10681 z"
         id="text28-3-1-1-6"
         style="font-size:29.7631px;line-height:0;font-family:'Segoe Script';-inkscape-font-specification:'Segoe Script, Normal';text-align:center;letter-spacing:1.86019px;text-anchor:middle;fill:#ffd04b;stroke:#ffd04b;stroke-width:0.132292;stroke-linecap:round;stroke-linejoin:round"
         inkscape:label="C1"
         aria-label="C" />
      <path
         style="fill:#000000;stroke:#ffda71;stroke-width:0.3;stroke-linecap:round;stroke-linejoin:round;stroke-dasharray:none;stroke-opacity:1"
         d="m 85.78968,146.24893 v -3.9615"
         id="path1-4-8" />
      <path
         style="fill:#000000;stroke:#ffda71;stroke-width:0.3;stroke-linecap:round;stroke-linejoin:round;stroke-dasharray:none;stroke-opacity:1"
         d="M 108.4957,134.83025 V 114.09461"
         id="path1-2" />
      <path
         style="fill:#000000;stroke:#ffda71;stroke-width:0.3;stroke-linecap:round;stroke-linejoin:round;stroke-dasharray:none;stroke-opacity:1"
         d="m 89.83718,138.83797 v -2.54725"
         id="path1-4-8-01" />
      <path
         style="fill:#000000;stroke:#ffda71;stroke-width:0.3;stroke-linecap:round;stroke-linejoin:round;stroke-dasharray:none;stroke-opacity:1"
         d="m 87.17874,141.67251 v -6.2981"
         id="path1-4-8-9" />
    </g>
    <g
       id="g1"
       transform="translate(53.468241,30.54892)">
      <path
         d="m 156.23221,193.97241 q -0.037,0.90022 -1.32562,2.17074 -0.31867,0.3214 -0.78553,0.70944 -0.45236,0.38863 -0.96338,0.78939 -0.51043,0.38623 -1.03539,0.77188 -0.51042,0.38624 -0.95979,0.70227 -1.43819,1.0171 -3.00231,1.91267 -1.56411,0.89558 -3.14773,1.55765 -1.5836,0.66205 -3.15468,1.01919 -1.55654,0.35776 -2.99415,0.2986 -1.56828,-0.0645 -2.71149,-0.56243 -1.14319,-0.49792 -1.87879,-1.35721 -0.72109,-0.8587 -1.0509,-2.03581 -0.32917,-1.19165 -0.27012,-2.6291 0.0392,-1.30738 0.37059,-2.64637 0.34593,-1.33838 0.90789,-2.62426 0.56195,-1.28586 1.32302,-2.46173 0.76168,-1.19039 1.64628,-2.18663 0.5339,-0.60345 1.1991,-1.21603 0.66579,-0.6271 1.38787,-1.20826 0.7366,-0.58055 1.48415,-1.07339 0.74814,-0.50735 1.46187,-0.88523 0.4609,-0.24284 1.17223,-0.56263 0.71136,-0.3198 1.4935,-0.59306 0.78216,-0.27325 1.5456,-0.44549 0.76411,-0.18655 1.31587,-0.16403 0.88579,0.0365 1.40318,0.18864 0.53251,0.13827 0.92717,0.44539 0.18281,0.15297 0.41714,0.46803 0.24944,0.30115 0.45234,0.67311 0.21802,0.35803 0.34831,0.72701 0.1454,0.35505 0.13527,0.60188 -0.0101,0.24684 -0.26279,0.73095 -0.25263,0.48411 -0.57966,1.0088 -0.32642,0.51017 -0.65047,0.96225 -0.32343,0.43757 -0.49033,0.60524 -0.62223,0.62889 -1.30473,0.60081 -0.58085,-0.0239 -0.90051,-0.38613 -0.30454,-0.37613 -0.28251,-0.91335 0.008,-0.18876 0.24169,-0.57183 0.23452,-0.39759 0.76366,-0.88487 0.52912,-0.48728 0.82234,-0.89701 0.30832,-0.42363 0.3869,-0.56585 -0.28207,-0.21522 -0.69841,-0.34871 -0.41634,-0.13348 -0.77937,-0.14842 -0.52277,-0.0215 -1.30254,0.19366 -0.77916,0.20065 -1.60788,0.54471 -0.81418,0.34466 -1.6029,0.77762 -0.7736,0.41905 -1.31368,0.81861 -1.5464,1.17265 -2.86823,2.5436 -1.32183,1.37096 -2.22056,3.06476 -0.36322,0.69773 -0.7004,1.46925 -0.32206,0.75759 -0.5727,1.54723 -0.25064,0.78962 -0.41417,1.58283 -0.14839,0.77929 -0.17822,1.50528 -0.0352,0.85667 0.12313,1.60494 0.17284,0.74888 0.60092,1.30463 0.42808,0.55575 1.14161,0.89054 0.72805,0.33538 1.80261,0.3796 1.1617,0.0478 2.39461,-0.22145 1.23292,-0.26924 2.46025,-0.75689 1.24246,-0.50157 2.46185,-1.14952 1.21998,-0.66248 2.3407,-1.38722 1.13525,-0.72414 2.15432,-1.45306 1.01906,-0.72892 1.8603,-1.37789 0.34532,-0.26214 0.72209,-0.58116 0.39127,-0.31841 0.76803,-0.63743 0.37675,-0.31902 0.72448,-0.63923 0.36222,-0.31962 0.63495,-0.58475 0.63973,0.36085 0.61406,0.9852 z"
         id="text28-3-1-1-6-5"
         style="font-size:29.7631px;line-height:0;font-family:'Segoe Script';-inkscape-font-specification:'Segoe Script, Normal';text-align:center;letter-spacing:1.86019px;text-anchor:middle;fill:#ffd04b;stroke:#ffd04b;stroke-width:0.132292;stroke-linecap:round;stroke-linejoin:round"
         inkscape:label="C2"
         aria-label="C" />
      <path
         style="fill:#000000;stroke:#ffda71;stroke-width:0.3;stroke-linecap:round;stroke-linejoin:round;stroke-dasharray:none;stroke-opacity:1"
         d="M 148.9354,180.37574 V 157.88616"
         id="path1-48" />
      <path
         style="fill:#000000;stroke:#ffda71;stroke-width:0.3;stroke-linecap:round;stroke-linejoin:round;stroke-dasharray:none;stroke-opacity:1"
         d="m 138.28592,185.37039 v -2.54725"
         id="path1-4-8-01-9" />
      <path
         style="fill:#000000;stroke:#ffda71;stroke-width:0.3;stroke-linecap:round;stroke-linejoin:round;stroke-dasharray:none;stroke-opacity:1"
         d="m 139.2992,183.5949 v -6.2981"
         id="path1-4-8-9-1" />
      <path
         style="fill:#000000;stroke:#ffda71;stroke-width:0.3;stroke-linecap:round;stroke-linejoin:round;stroke-dasharray:none;stroke-opacity:1"
         d="m 150.39061,178.781 v -9.20225"
         id="path1-4-8-6" />
    </g>
  </g>
</svg>
