<?xml version="1.0" encoding="UTF-8" standalone="no"?>
<!-- Created with Inkscape (http://www.inkscape.org/) -->

<svg
   width="112.05059mm"
   height="96.238426mm"
   viewBox="0 0 112.05059 96.238425"
   version="1.1"
   id="svg1"
   sodipodi:docname="MCMC_Cookbook_favicon.svg"
   inkscape:version="1.3.2 (091e20e, 2023-11-25, custom)"
   xmlns:inkscape="http://www.inkscape.org/namespaces/inkscape"
   xmlns:sodipodi="http://sodipodi.sourceforge.net/DTD/sodipodi-0.dtd"
   xmlns="http://www.w3.org/2000/svg"
   xmlns:svg="http://www.w3.org/2000/svg">
  <sodipodi:namedview
     id="namedview1"
     pagecolor="#ffffff"
     bordercolor="#999999"
     borderopacity="1"
     inkscape:showpageshadow="2"
     inkscape:pageopacity="0"
     inkscape:pagecheckerboard="0"
     inkscape:deskcolor="#d1d1d1"
     inkscape:document-units="mm"
     inkscape:zoom="2.8284272"
     inkscape:cx="194.80791"
     inkscape:cy="190.03494"
     inkscape:window-width="2560"
     inkscape:window-height="1377"
     inkscape:window-x="-8"
     inkscape:window-y="-8"
     inkscape:window-maximized="1"
     inkscape:current-layer="layer3" />
  <defs
     id="defs1">
    <inkscape:path-effect
       effect="perspective-envelope"
       up_left_point="111.43816,129.80755"
       up_right_point="152.51418,116.39861"
       down_left_point="126.31836,147.81975"
       down_right_point="166.86715,132.05889"
       id="path-effect6"
       is_visible="true"
       lpeversion="1"
       deform_type="perspective"
       horizontal_mirror="false"
       vertical_mirror="false"
       overflow_perspective="false" />
    <inkscape:path-effect
       effect="perspective-envelope"
       up_left_point="31.944874,177.06723"
       up_right_point="120.04105,146.17652"
       down_left_point="81.897548,235.28429"
       down_right_point="170.9645,199.73744"
       id="path-effect8"
       is_visible="true"
       lpeversion="1"
       deform_type="perspective"
       horizontal_mirror="false"
       vertical_mirror="false"
       overflow_perspective="false" />
    <inkscape:path-effect
       effect="perspective-envelope"
       up_left_point="163.5355,97.477504"
       up_right_point="176.8224,96.448516"
       down_left_point="158.1567,107.80067"
       down_right_point="180.42385,106.77168"
       id="path-effect5"
       is_visible="true"
       lpeversion="1"
       deform_type="perspective"
       horizontal_mirror="false"
       vertical_mirror="false"
       overflow_perspective="false" />
    <inkscape:path-effect
       effect="perspective-envelope"
       up_left_point="131.54243,97.998695"
       up_right_point="144.31781,97.998695"
       down_left_point="126.71378,115.88574"
       down_right_point="150.46937,115.48886"
       id="path-effect2"
       is_visible="true"
       lpeversion="1"
       deform_type="perspective"
       horizontal_mirror="false"
       vertical_mirror="false"
       overflow_perspective="false" />
    <inkscape:path-effect
       effect="perspective-envelope"
       up_left_point="98.229652,96.377896"
       up_right_point="120.71386,95.442453"
       down_left_point="102.81333,102.127"
       down_right_point="125.71848,98.80618"
       id="path-effect1"
       is_visible="true"
       lpeversion="1"
       deform_type="perspective"
       horizontal_mirror="false"
       vertical_mirror="false"
       overflow_perspective="false" />
    <inkscape:path-effect
       effect="taper_stroke"
       start_shape="center | center"
       end_shape="center | center"
       id="path-effect21"
       is_visible="true"
       lpeversion="1"
       stroke_width="1.5"
       subpath="1"
       attach_start="1.4659272"
       end_offset="0.19586705"
       start_smoothing="0.5"
       end_smoothing="0.5"
       jointype="extrapolated"
       miter_limit="100" />
    <inkscape:path-effect
       effect="perspective-envelope"
       up_left_point="103.13937,189.41278"
       up_right_point="142.55453,176.50365"
       down_left_point="113.24216,201.33404"
       down_right_point="152.00251,186.36695"
       id="path-effect20"
       is_visible="true"
       lpeversion="1"
       deform_type="perspective"
       horizontal_mirror="false"
       vertical_mirror="false"
       overflow_perspective="false" />
    <inkscape:path-effect
       effect="perspective-envelope"
       up_left_point="77.636529,156.90341"
       up_right_point="117.03833,144.55555"
       down_left_point="89.329571,170.60701"
       down_right_point="127.70239,155.82701"
       id="path-effect19"
       is_visible="true"
       lpeversion="1"
       deform_type="perspective"
       horizontal_mirror="false"
       vertical_mirror="false"
       overflow_perspective="false" />
    <rect
       x="163"
       y="923"
       width="480"
       height="269"
       id="rect18" />
    <inkscape:path-effect
       effect="curvestitching"
       id="path-effect18"
       is_visible="true"
       lpeversion="1"
       count="5"
       startpoint_edge_variation="0;1"
       startpoint_spacing_variation="0;1"
       endpoint_edge_variation="0;1"
       endpoint_spacing_variation="0;1"
       strokepath="M 0,0 H 1"
       prop_scale="1"
       scale_y_rel="false" />
    <inkscape:path-effect
       effect="perspective-envelope"
       up_left_point="101.20533,163.63492"
       up_right_point="125.83601,163.66858"
       down_left_point="103.40328,170.72349"
       down_right_point="127.79784,169.61569"
       id="path-effect4"
       is_visible="true"
       lpeversion="1"
       deform_type="perspective"
       horizontal_mirror="false"
       vertical_mirror="false"
       overflow_perspective="false" />
    <inkscape:path-effect
       effect="perspective-envelope"
       up_left_point="99.044277,155.46913"
       up_right_point="122.71656,154.65763"
       down_left_point="100.72802,162.08967"
       down_right_point="125.13783,161.33258"
       id="path-effect3"
       is_visible="true"
       lpeversion="1"
       deform_type="perspective"
       horizontal_mirror="false"
       vertical_mirror="false"
       overflow_perspective="false" />
    <rect
       x="147.5"
       y="608.5"
       width="167"
       height="40"
       id="rect41" />
    <inkscape:path-effect
       effect="perspective-envelope"
       up_left_point="94.637468,156.21965"
       up_right_point="130.51096,156.69945"
       down_left_point="95.514162,163.67293"
       down_right_point="131.58382,162.10149"
       id="path-effect3-3"
       is_visible="true"
       lpeversion="1"
       deform_type="perspective"
       horizontal_mirror="false"
       vertical_mirror="false"
       overflow_perspective="false" />
    <inkscape:path-effect
       effect="perspective-envelope"
       up_left_point="94.753557,163.9011"
       up_right_point="131.57312,164.20317"
       down_left_point="95.630796,171.62203"
       down_right_point="132.51818,169.34547"
       id="path-effect4-7"
       is_visible="true"
       lpeversion="1"
       deform_type="perspective"
       horizontal_mirror="false"
       vertical_mirror="false"
       overflow_perspective="false" />
    <inkscape:path-effect
       effect="taper_stroke"
       start_shape="center | center"
       end_shape="center | center"
       id="path-effect21-4"
       is_visible="true"
       lpeversion="1"
       stroke_width="1.5"
       subpath="1"
       attach_start="1.4659272"
       end_offset="0.19586705"
       start_smoothing="0.5"
       end_smoothing="0.5"
       jointype="extrapolated"
       miter_limit="100" />
    <inkscape:path-effect
       effect="perspective-envelope"
       up_left_point="111.43816,129.80755"
       up_right_point="152.51418,116.39861"
       down_left_point="126.31836,147.81975"
       down_right_point="166.86715,132.05889"
       id="path-effect6-8"
       is_visible="true"
       lpeversion="1"
       deform_type="perspective"
       horizontal_mirror="false"
       vertical_mirror="false"
       overflow_perspective="false" />
  </defs>
  <g
     inkscape:groupmode="layer"
     id="layer3"
     inkscape:label="Book"
     transform="translate(-63.455501,-76.080627)">
    <path
       style="fill:#502d16;fill-opacity:1;stroke:none;stroke-width:0.599998;stroke-linecap:butt;stroke-linejoin:round;stroke-dasharray:none;stroke-opacity:1"
       d="m 115.65837,171.16533 c -0.27933,-0.14264 -0.59413,-0.50356 -0.71052,-0.81463 -0.14451,-0.38618 -0.16112,-0.47961 -0.0901,-0.50706 0.0344,-0.0133 11.81378,-4.82116 26.17634,-10.68413 16.16573,-6.59903 26.2896,-10.73125 26.52692,-10.97732 l 0.57393,-0.5951 0.35529,0.37544 c 0.21245,0.22451 0.58422,0.72517 0.62724,0.89653 0.0291,0.11571 0.009,0.15499 -0.15109,0.29415 -0.10153,0.0883 -0.29091,0.21479 -0.42084,0.28105 -0.53275,0.27165 -14.7849,6.33855 -24.14315,10.27734 -14.81015,6.23341 -25.22597,10.47932 -27.88667,11.3677 -0.31788,0.10614 -0.59427,0.19269 -0.61422,0.19232 -0.0199,-2.6e-4 -0.12933,-0.0482 -0.2431,-0.10629 z"
       id="path4"
       sodipodi:nodetypes="ssssscsssssscss" />
    <path
       style="fill:none;stroke:#f2f2f2;stroke-width:0.6;stroke-linejoin:round;stroke-dasharray:none"
       d="m 170.55003,137.84852 c -1.62799,2.75684 -3.86183,6.00383 -2.86898,9.27514 0.36685,0.8505 -0.0396,0.68191 -0.78288,1.15065 l -51.96923,21.21657"
       id="path14-6"
       sodipodi:nodetypes="cccc" />
    <path
       style="fill:#c84a37;fill-opacity:1;stroke:#852212;stroke-width:0.6;stroke-linejoin:round;stroke-dasharray:none;stroke-opacity:1"
       d="m 71.232738,90.916606 50.169382,-14.49289 c 0.71321,-0.16348 1.27253,0.13496 1.77536,0.60251 l 51.31064,56.559794 c 1.15775,1.15732 1.01323,2.22072 -1.1433,3.13911 l -49.69178,18.7828 z"
       id="path3-9"
       sodipodi:nodetypes="ccccccc"
       inkscape:label="cover2" />
    <path
       style="fill:#e9b7af;fill-opacity:1;stroke:#872212;stroke-width:0.6;stroke-linejoin:round;stroke-dasharray:none;stroke-opacity:1"
       d="m 82.09011,95.481306 c -1.551941,-1.96789 -0.7307,-3.44393 2.409424,-4.43935 l 33.985896,-10.0203 c 1.38633,-0.41964 2.7005,-1.11783 4.94572,1.77574 l 43.11642,47.691474 c 1.0303,1.08965 1.46421,2.08698 0,2.79047 l -38.17073,14.96701 c -2.03808,0.95608 -3.30404,0.0457 -4.81889,-1.77574 z"
       id="path2-8"
       sodipodi:nodetypes="ccccccccc"
       inkscape:label="cover1" />
    <path
       style="fill:none;stroke:#852212;stroke-width:0.6;stroke-linecap:butt;stroke-linejoin:round;stroke-dasharray:none;stroke-opacity:1"
       d="m 71.211723,90.892476 c -2.567303,-1.02351 -8.968587,5.33965 -7.129078,16.036064 l 7.355435,10.15719 c 0.505953,1.29025 0.549553,1.58417 1.791301,2.24794 l 7.845662,9.87991 c 0.355566,0.64062 0.584389,1.4333 1.379357,1.83422 l 7.787773,9.53716 c 0.251183,0.63086 0.556911,1.18357 1.101104,1.39555 l 10.193363,12.99101 c 0.18855,0.46497 0.35702,0.99537 1.02905,1.2185 0,0 11.62126,15.10134 12.38098,15.53754 0.41868,0.24045 0.59354,0.42932 1.20561,0.16488 0.36335,-0.15673 1.59595,-0.86807 1.92157,-1.09098 m 50.04232,-23.04911 c 0.13086,0.002 0.94354,0.35464 1.17903,1.19982 0.0879,0.31478 -0.73317,0.79272 -0.81005,0.82631 -5.469,2.38726 -51.39874,21.9437 -52.30796,21.62669 -1.26892,-0.44254 -1.45907,-1.64025 -1.47662,-3.40976 -0.0143,-1.716 0.28402,-3.83313 1.18506,-5.53385 1.48594,-2.80513 4.75246,-5.36725 7.7595,-6.96154"
       id="path4-7"
       sodipodi:nodetypes="ccccccccccssccsssssc"
       inkscape:label="edge" />
    <path
       style="fill:#872212;fill-opacity:1;stroke:none;stroke-width:0.600001;stroke-linejoin:round;stroke-dasharray:none;stroke-opacity:1"
       d="m 115.25811,171.6605 c -0.46263,-0.25143 -2.99478,-3.44216 -9.101,-11.29133 l -3.55572,-4.57065 0.2539,-1.48637 c 0.66474,-3.89145 1.70113,-6.77723 3.29761,-9.18203 0.6243,-0.94038 1.84806,-2.29719 2.5929,-2.8748 0.75036,-0.58188 0.92038,-1.23653 0.38456,-1.48067 -0.66427,-0.30266 -1.07972,-0.0781 -2.44747,1.32299 -1.66382,1.70436 -2.63435,3.06315 -3.53536,4.9497 -0.91575,1.91744 -1.40205,3.61313 -1.72424,6.01235 l -0.15075,1.12254 -4.802102,-6.12716 c -2.641158,-3.36993 -4.898205,-6.21134 -5.015661,-6.31424 -0.200999,-0.17609 -0.208799,-0.2256 -0.132633,-0.8419 0.134876,-1.09133 0.348736,-1.9928 0.776139,-3.27158 1.086652,-3.25123 2.94844,-6.01784 5.362114,-7.96805 1.246138,-1.00687 1.522561,-1.3006 1.522561,-1.61792 0,-0.3078 -0.144023,-0.44987 -0.535408,-0.52815 -0.602549,-0.12051 -1.577986,0.55964 -3.475247,2.42322 -2.53202,2.48707 -3.849211,4.95012 -4.600784,8.60314 -0.148092,0.71981 -0.282016,1.32151 -0.297608,1.3371 -0.01558,0.0156 -1.647772,-1.95801 -3.62707,-4.38578 -1.979295,-2.42778 -3.715829,-4.52667 -3.858964,-4.66421 l -0.260246,-0.25008 0.09768,-1.48049 c 0.392618,-5.95059 2.394339,-10.58758 5.646444,-13.07999 0.696164,-0.53354 0.959686,-0.92657 0.86751,-1.29382 -0.127365,-0.50747 -1.132467,-0.70235 -1.818163,-0.35253 -0.45175,0.23046 -1.935216,1.62875 -2.629427,2.47844 -2.198552,2.69096 -3.444412,6.20428 -3.640606,10.2665 l -0.06249,1.2938 -3.648229,-4.5941 c -2.006526,-2.52675 -3.751379,-4.67526 -3.87745,-4.77447 -0.190137,-0.14961 -0.248896,-0.3191 -0.344628,-0.99405 -0.144404,-1.01815 -0.160247,-3.6017 -0.02804,-4.57209 0.47114,-3.45802 2.075296,-6.3232 5.202806,-9.29275 1.014603,-0.96336 1.27249,-1.3425 1.227698,-1.80498 -0.02548,-0.26314 -0.06579,-0.30159 -0.343979,-0.3282 -0.452533,-0.0433 -0.78966,0.11724 -1.76375,0.83982 -1.737405,1.28881 -3.430651,3.10592 -4.36177,4.68084 -1.194358,2.02017 -1.730991,4.01158 -1.828286,6.78465 l -0.05653,1.6111 -3.227279,-4.45414 c -1.775005,-2.44977 -3.274697,-4.54286 -3.332649,-4.6513 -0.321154,-0.60091 -0.462883,-4.31561 -0.23059,-6.04368 0.241814,-1.798893 0.686528,-3.365104 1.379207,-4.857354 1.268,-2.731675 3.572658,-4.947931 5.047001,-4.853409 l 0.451218,0.02893 3.000401,3.695002 c 4.405241,5.425061 49.24601,60.455301 49.3439,60.580261 0.0568,0.0725 -0.35382,0.11223 -0.72183,0.31843 -2.98934,1.67503 -5.96101,4.49978 -7.08411,6.73386 -0.39287,0.7815 -0.74948,1.88337 -0.95366,2.94664 -0.20102,1.04684 -0.23109,3.67125 -0.0511,4.45797 0.15134,0.66142 0.56901,1.30325 0.99865,1.53463 0.18088,0.0974 0.41657,0.20086 0.41657,0.2406 0,0.11675 -0.47956,0.16353 -0.74407,0.0198 z"
       id="path2"
       sodipodi:nodetypes="sscssssssscsssssssssssscsssssscsssssssssscssssscssssssssss"
       inkscape:label="spine" />
    <path
       style="fill:#501e16;fill-opacity:1;stroke:#501e16;stroke-width:0.199999;stroke-linejoin:round;stroke-opacity:1"
       d="m 71.237769,117.15934 c -0.963905,-7.70492 2.544426,-11.76768 6.794154,-14.79973 1.524404,-0.70345 1.399251,0.0219 0.972996,0.8644 -4.152418,3.61631 -7.51362,8.08928 -5.936648,16.25312 -0.759035,-0.31927 -1.421963,-0.90322 -1.830502,-2.31779 z"
       id="path5-6"
       sodipodi:nodetypes="ccccc"
       inkscape:label="rib4" />
    <path
       style="fill:#501e16;fill-opacity:1;stroke:#501e16;stroke-width:0.199999;stroke-linejoin:round;stroke-opacity:1"
       d="m 80.896745,129.3266 c -0.215084,-6.49491 1.852682,-11.49575 6.06521,-14.78469 0.438343,-0.34218 1.214313,-0.39552 1.650515,-0.12987 0.385427,0.23487 0.521445,0.73047 -0.304526,1.32409 -5.903667,4.24308 -6.095236,13.43747 -6.000006,15.46033 -0.633395,-0.19508 -1.052122,-0.91765 -1.411193,-1.86986 z"
       id="path7-7"
       sodipodi:nodetypes="cssscc"
       inkscape:label="rib3" />
    <path
       style="fill:#501e16;fill-opacity:1;stroke:#501e16;stroke-width:0.199999;stroke-linejoin:round;stroke-opacity:1"
       d="m 90.087531,140.74205 c 0.759175,-6.61756 3.35987,-9.71207 7.200505,-12.76185 1.162886,-0.92343 2.442894,-0.12697 0.983412,0.92222 -5.903708,4.24304 -7.19714,11.19828 -7.101889,13.22114 -0.695788,-0.29474 -0.905519,-0.86217 -1.082028,-1.38151 z"
       id="path7-1-8"
       sodipodi:nodetypes="csscc"
       inkscape:label="rib2" />
    <path
       style="fill:#501e16;fill-opacity:1;stroke:#501e16;stroke-width:0.199999;stroke-linejoin:round;stroke-opacity:1"
       d="m 101.34347,155.06659 c 0.22585,-6.55005 2.88334,-10.72564 6.38981,-13.92633 0.98282,-0.89711 2.49122,-0.12473 1.09216,0.95853 -5.34168,4.13599 -6.02018,12.19667 -6.37561,14.30537 -0.48173,-0.16455 -0.86592,-0.5737 -1.10636,-1.33757 z"
       id="path7-0-3"
       sodipodi:nodetypes="csscc"
       inkscape:label="rib1" />
    <path
       style="fill:#f2f2f2;fill-opacity:1;stroke:none;stroke-width:0.599998;stroke-linecap:butt;stroke-linejoin:round;stroke-dasharray:none;stroke-opacity:1"
       d="m 115.09949,167.70654 c 0,-2.20884 0.45834,-3.98692 1.47444,-5.71985 0.53762,-0.9169 3.02795,-3.45304 4.21513,-4.29266 2.20276,-1.55789 1.99234,-1.47246 25.86199,-10.50015 12.73307,-4.81574 23.16642,-8.74196 23.18523,-8.72491 0.0188,0.017 -0.27279,0.56129 -0.648,1.20946 -0.3752,0.64816 -0.85678,1.55987 -1.07016,2.02602 -0.8247,1.8016 -1.11866,3.99203 -0.7155,5.33163 l 0.18022,0.59883 -0.60858,0.29567 c -0.62641,0.30433 -51.69038,21.1706 -51.80873,21.1706 -0.0363,0 -0.066,-0.62759 -0.066,-1.39464 z"
       id="path5"
       inkscape:label="pages" />
    <path
       d="m 134.75131,127.84261 -0.23018,6.20121 c -0.0432,3.03054 -0.61588,4.77233 -1.7225,5.18384 -0.51579,0.1918 -1.17851,0.12219 -1.98745,-0.2094 -0.81559,-0.33908 -1.85242,-0.92598 -3.1092,-1.75993 -1.25555,-0.83313 -2.18207,-1.47192 -2.78014,-1.91674 -1.37355,-1.03122 -2.19427,-1.60153 -2.46408,-1.71232 l 1.66727,3.06792 c 0.54995,0.99755 1.03629,1.92769 1.45848,2.78971 0.41765,0.85796 0.94701,1.88703 1.58935,3.08938 0.65486,1.20508 1.18586,2.10351 1.59116,2.69162 0.1384,0.19513 0.0868,0.48363 -0.15536,0.86625 -0.23363,0.38019 -0.46192,0.61384 -0.68453,0.70014 -0.44603,0.17293 -1.00689,0.16432 -1.68226,-0.0263 -0.6604,-0.18679 -1.11963,-0.43614 -1.37699,-0.74768 -0.60158,-0.72819 -1.17627,-1.72177 -1.7228,-2.97666 -2.19432,-5.06846 -3.64153,-8.16767 -4.37676,-9.38061 -0.72231,-1.21007 -1.39367,-2.18652 -2.01561,-2.93247 -0.32231,-0.38658 -0.35173,-0.75556 -0.0892,-1.10651 0.26179,-0.34989 0.74245,-0.6398 1.44061,-0.86986 0.37557,-0.12377 0.91072,-0.0565 1.60566,0.20147 0.69447,0.25779 1.23757,0.52955 1.62979,0.81553 l -0.0315,-0.0166 5.38224,3.50257 c 2.15269,1.4032 3.54648,2.28676 4.17894,2.6491 0.24299,-1.18008 0.4171,-3.12412 0.52242,-5.80459 0.10949,-2.62836 0.25225,-4.32113 0.42893,-5.10804 0.17569,-0.78251 0.39896,-1.21676 0.67026,-1.30592 0.41463,-0.13626 0.995,-0.14957 1.74079,-0.0403 0.74441,0.10906 1.20135,0.2609 1.37194,0.45577 0.1295,0.14791 0.85406,1.21673 2.18185,3.21875 0.94869,1.42208 2.06504,3.00672 3.35136,4.75649 1.29503,1.76161 2.08003,2.80071 2.3486,3.10857 0.33,0.37827 0.72809,0.74563 1.19419,1.1019 0.35328,0.27773 0.64973,0.5538 0.88937,0.82828 0.6093,0.6979 0.8798,1.23064 0.8103,1.59772 -0.0613,0.36477 -0.39331,0.66395 -0.99746,0.89746 -1.10462,0.42695 -2.27003,-0.064 -3.48669,-1.46981 -1.1435,-1.32131 -2.38747,-2.97921 -3.72767,-4.96615 -1.33562,-1.97818 -2.31206,-3.50065 -2.93508,-4.57536 -0.2252,-0.38653 -0.38448,-0.65251 -0.47809,-0.79837 z m 25.33309,0.98699 c 0.57523,-0.21348 1.08394,-0.0767 1.52817,0.4104 0.55331,0.60672 0.40375,1.67338 -0.45797,3.21416 -0.87157,1.5515 -2.11084,2.64559 -3.72068,3.27132 -1.43522,0.55785 -3.13275,0.66394 -5.08991,0.31351 -1.9659,-0.35199 -3.64897,-1.31872 -5.0371,-2.89276 -1.40497,-1.59312 -2.30191,-3.58483 -2.69235,-5.95654 -0.38507,-2.33896 -0.15265,-4.4031 0.68395,-6.19655 0.83223,-1.76983 2.11967,-2.93098 3.85823,-3.49852 1.02715,-0.3353 2.07342,-0.3492 3.14196,-0.0436 1.06661,0.30504 1.90865,0.79498 2.52862,1.47143 0.67375,0.73512 1.09219,1.2885 1.25425,1.65926 0.15653,0.36509 0.11807,0.73935 -0.11619,1.12324 -0.23507,0.38521 -0.49317,0.62695 -0.77402,0.72436 -0.28892,0.10021 -0.61951,0.10029 -0.99159,7e-5 -0.37231,-0.10029 -0.69344,-0.29881 -0.96301,-0.5953 -0.18737,-0.20608 -0.39433,-0.52747 -0.62065,-0.96359 -0.23347,-0.43262 -0.46941,-0.77978 -0.70803,-1.04198 -0.40108,-0.44072 -0.78135,-0.60084 -1.14183,-0.48066 -1.10918,0.36978 -1.91313,1.28384 -2.41072,2.75301 -0.50339,1.48627 -0.5881,3.16774 -0.24692,5.04694 0.347,1.89059 1.04857,3.43626 2.105,4.62479 0.7026,0.79047 1.5657,1.35949 2.5869,1.70515 1.01989,0.34521 2.0396,0.32372 3.05555,-0.0624 0.5957,-0.22638 1.2167,-0.6483 1.86155,-1.26345 0.64856,-0.61423 1.13642,-1.29543 1.46512,-2.04305 0.32832,-0.75256 0.62849,-1.17788 0.90167,-1.27925 z"
       id="text1"
       style="font-weight:bold;font-size:23.4924px;line-height:0;font-family:'Segoe Print';-inkscape-font-specification:'Segoe Print, Bold';text-align:center;letter-spacing:0px;text-anchor:middle;stroke-width:1.10736;stroke-linecap:round;stroke-linejoin:round"
       aria-label="MC"
       inkscape:path-effect="#path-effect6"
       inkscape:original-d="m 141.93316,131.44536 -3.81981,5.1619 q -2.64978,3.7051 -4.08364,3.7051 -0.66531,0 -1.1815,-0.75707 -0.51619,-0.76855 -1.05532,-2.3286 -0.53914,-1.56004 -0.75708,-2.363 -0.49325,-1.85829 -0.66532,-2.11065 l -0.58501,2.98244 q -0.2753,1.44533 -0.56208,2.66124 -0.28677,1.20445 -0.6309,2.90214 -0.33266,1.69769 -0.41295,2.55801 -0.0229,0.28677 -0.5506,0.61943 -0.51619,0.33266 -0.7915,0.33266 -0.5506,0 -1.03238,-0.51619 -0.4703,-0.50472 -0.4703,-0.97503 0,-1.10121 0.45883,-2.7989 1.8927,-6.95136 2.15653,-8.7523 0.2753,-1.80093 0.2753,-2.9939 0,-0.61943 0.53913,-0.95209 0.53914,-0.33265 1.41093,-0.33265 0.47031,0 0.94061,0.61942 0.47031,0.61943 0.61943,1.14709 l -0.0115,-0.0229 1.59446,4.46219 q 0.95208,2.67272 1.27327,3.39538 1.23885,-1.34209 3.67068,-4.66866 2.43183,-3.31509 3.32656,-4.26717 0.89473,-0.95208 1.2618,-0.95208 0.56208,0 1.25033,0.4703 0.68825,0.47031 0.68825,0.80297 0,0.25236 -0.44736,3.45274 -0.30972,2.25977 -0.56208,5.05866 -0.25236,2.7989 -0.25236,3.30362 0,0.61943 0.1606,1.27327 0.11471,0.50472 0.11471,0.95209 0,1.13562 -0.40149,1.54857 -0.39001,0.41295 -1.21591,0.41295 -1.50269,0 -1.50269,-2.25977 0,-2.13358 0.39001,-5.20778 0.39001,-3.08568 0.7112,-4.73749 0.11471,-0.59648 0.14912,-0.8259 z m 17.68813,8.64906 q 0.87178,0 0.87178,0.84884 0,1.05533 -2.53507,2.6039 -2.52359,1.5371 -4.8866,1.5371 -2.0877,0 -3.84275,-1.36504 -1.75505,-1.36504 -1.75505,-3.9804 0,-2.66125 1.83535,-5.90751 1.83534,-3.24627 4.54247,-5.28809 2.71861,-2.04182 5.29956,-2.04182 1.5371,0 2.45477,0.91767 0.91767,0.91767 0.91767,2.14506 0,1.33062 -0.20647,1.91564 -0.20648,0.57354 -0.88326,0.9865 -0.67679,0.41295 -1.10121,0.41295 -0.43589,0 -0.75708,-0.30972 -0.32118,-0.30971 -0.32118,-0.83737 0,-0.36707 0.195,-1.0668 0.18354,-0.69972 0.18354,-1.17003 0,-0.79149 -0.53914,-0.79149 -1.65181,0 -3.7051,1.76652 -2.05329,1.76652 -3.52156,4.39336 -1.45681,2.61536 -1.45681,4.62277 0,1.33062 0.76855,2.2483 0.76855,0.91767 2.2483,0.91767 0.87179,0 2.19094,-0.47031 1.33063,-0.47031 2.45477,-1.27327 1.13562,-0.81443 1.54858,-0.81443 z"
       transform="matrix(0.90304572,0,0,0.90304572,-11.333663,-15.592455)" />
    <path
       d="m 134.75131,127.84261 -0.23018,6.20121 c -0.0432,3.03054 -0.61588,4.77233 -1.7225,5.18384 -0.51579,0.1918 -1.17851,0.12219 -1.98745,-0.2094 -0.81559,-0.33908 -1.85242,-0.92598 -3.1092,-1.75993 -1.25555,-0.83313 -2.18207,-1.47192 -2.78014,-1.91674 -1.37355,-1.03122 -2.19427,-1.60153 -2.46408,-1.71232 l 1.66727,3.06792 c 0.54995,0.99755 1.03629,1.92769 1.45848,2.78971 0.41765,0.85796 0.94701,1.88703 1.58935,3.08938 0.65486,1.20508 1.18586,2.10351 1.59116,2.69162 0.1384,0.19513 0.0868,0.48363 -0.15536,0.86625 -0.23363,0.38019 -0.46192,0.61384 -0.68453,0.70014 -0.44603,0.17293 -1.00689,0.16432 -1.68226,-0.0263 -0.6604,-0.18679 -1.11963,-0.43614 -1.37699,-0.74768 -0.60158,-0.72819 -1.17627,-1.72177 -1.7228,-2.97666 -2.19432,-5.06846 -3.64153,-8.16767 -4.37676,-9.38061 -0.72231,-1.21007 -1.39367,-2.18652 -2.01561,-2.93247 -0.32231,-0.38658 -0.35173,-0.75556 -0.0892,-1.10651 0.26179,-0.34989 0.74245,-0.6398 1.44061,-0.86986 0.37557,-0.12377 0.91072,-0.0565 1.60566,0.20147 0.69447,0.25779 1.23757,0.52955 1.62979,0.81553 l -0.0315,-0.0166 5.38224,3.50257 c 2.15269,1.4032 3.54648,2.28676 4.17894,2.6491 0.24299,-1.18008 0.4171,-3.12412 0.52242,-5.80459 0.10949,-2.62836 0.25225,-4.32113 0.42893,-5.10804 0.17569,-0.78251 0.39896,-1.21676 0.67026,-1.30592 0.41463,-0.13626 0.995,-0.14957 1.74079,-0.0403 0.74441,0.10906 1.20135,0.2609 1.37194,0.45577 0.1295,0.14791 0.85406,1.21673 2.18185,3.21875 0.94869,1.42208 2.06504,3.00672 3.35136,4.75649 1.29503,1.76161 2.08003,2.80071 2.3486,3.10857 0.33,0.37827 0.72809,0.74563 1.19419,1.1019 0.35328,0.27773 0.64973,0.5538 0.88937,0.82828 0.6093,0.6979 0.8798,1.23064 0.8103,1.59772 -0.0613,0.36477 -0.39331,0.66395 -0.99746,0.89746 -1.10462,0.42695 -2.27003,-0.064 -3.48669,-1.46981 -1.1435,-1.32131 -2.38747,-2.97921 -3.72767,-4.96615 -1.33562,-1.97818 -2.31206,-3.50065 -2.93508,-4.57536 -0.2252,-0.38653 -0.38448,-0.65251 -0.47809,-0.79837 z m 25.33309,0.98699 c 0.57523,-0.21348 1.08394,-0.0767 1.52817,0.4104 0.55331,0.60672 0.40375,1.67338 -0.45797,3.21416 -0.87157,1.5515 -2.11084,2.64559 -3.72068,3.27132 -1.43522,0.55785 -3.13275,0.66394 -5.08991,0.31351 -1.9659,-0.35199 -3.64897,-1.31872 -5.0371,-2.89276 -1.40497,-1.59312 -2.30191,-3.58483 -2.69235,-5.95654 -0.38507,-2.33896 -0.15265,-4.4031 0.68395,-6.19655 0.83223,-1.76983 2.11967,-2.93098 3.85823,-3.49852 1.02715,-0.3353 2.07342,-0.3492 3.14196,-0.0436 1.06661,0.30504 1.90865,0.79498 2.52862,1.47143 0.67375,0.73512 1.09219,1.2885 1.25425,1.65926 0.15653,0.36509 0.11807,0.73935 -0.11619,1.12324 -0.23507,0.38521 -0.49317,0.62695 -0.77402,0.72436 -0.28892,0.10021 -0.61951,0.10029 -0.99159,7e-5 -0.37231,-0.10029 -0.69344,-0.29881 -0.96301,-0.5953 -0.18737,-0.20608 -0.39433,-0.52747 -0.62065,-0.96359 -0.23347,-0.43262 -0.46941,-0.77978 -0.70803,-1.04198 -0.40108,-0.44072 -0.78135,-0.60084 -1.14183,-0.48066 -1.10918,0.36978 -1.91313,1.28384 -2.41072,2.75301 -0.50339,1.48627 -0.5881,3.16774 -0.24692,5.04694 0.347,1.89059 1.04857,3.43626 2.105,4.62479 0.7026,0.79047 1.5657,1.35949 2.5869,1.70515 1.01989,0.34521 2.0396,0.32372 3.05555,-0.0624 0.5957,-0.22638 1.2167,-0.6483 1.86155,-1.26345 0.64856,-0.61423 1.13642,-1.29543 1.46512,-2.04305 0.32832,-0.75256 0.62849,-1.17788 0.90167,-1.27925 z"
       id="text1-9"
       style="font-weight:bold;font-size:23.4924px;line-height:0;font-family:'Segoe Print';-inkscape-font-specification:'Segoe Print, Bold';text-align:center;letter-spacing:0px;text-anchor:middle;stroke-width:1.10736;stroke-linecap:round;stroke-linejoin:round"
       aria-label="MC"
       inkscape:path-effect="#path-effect6-8"
       inkscape:original-d="m 141.93316,131.44536 -3.81981,5.1619 q -2.64978,3.7051 -4.08364,3.7051 -0.66531,0 -1.1815,-0.75707 -0.51619,-0.76855 -1.05532,-2.3286 -0.53914,-1.56004 -0.75708,-2.363 -0.49325,-1.85829 -0.66532,-2.11065 l -0.58501,2.98244 q -0.2753,1.44533 -0.56208,2.66124 -0.28677,1.20445 -0.6309,2.90214 -0.33266,1.69769 -0.41295,2.55801 -0.0229,0.28677 -0.5506,0.61943 -0.51619,0.33266 -0.7915,0.33266 -0.5506,0 -1.03238,-0.51619 -0.4703,-0.50472 -0.4703,-0.97503 0,-1.10121 0.45883,-2.7989 1.8927,-6.95136 2.15653,-8.7523 0.2753,-1.80093 0.2753,-2.9939 0,-0.61943 0.53913,-0.95209 0.53914,-0.33265 1.41093,-0.33265 0.47031,0 0.94061,0.61942 0.47031,0.61943 0.61943,1.14709 l -0.0115,-0.0229 1.59446,4.46219 q 0.95208,2.67272 1.27327,3.39538 1.23885,-1.34209 3.67068,-4.66866 2.43183,-3.31509 3.32656,-4.26717 0.89473,-0.95208 1.2618,-0.95208 0.56208,0 1.25033,0.4703 0.68825,0.47031 0.68825,0.80297 0,0.25236 -0.44736,3.45274 -0.30972,2.25977 -0.56208,5.05866 -0.25236,2.7989 -0.25236,3.30362 0,0.61943 0.1606,1.27327 0.11471,0.50472 0.11471,0.95209 0,1.13562 -0.40149,1.54857 -0.39001,0.41295 -1.21591,0.41295 -1.50269,0 -1.50269,-2.25977 0,-2.13358 0.39001,-5.20778 0.39001,-3.08568 0.7112,-4.73749 0.11471,-0.59648 0.14912,-0.8259 z m 17.68813,8.64906 q 0.87178,0 0.87178,0.84884 0,1.05533 -2.53507,2.6039 -2.52359,1.5371 -4.8866,1.5371 -2.0877,0 -3.84275,-1.36504 -1.75505,-1.36504 -1.75505,-3.9804 0,-2.66125 1.83535,-5.90751 1.83534,-3.24627 4.54247,-5.28809 2.71861,-2.04182 5.29956,-2.04182 1.5371,0 2.45477,0.91767 0.91767,0.91767 0.91767,2.14506 0,1.33062 -0.20647,1.91564 -0.20648,0.57354 -0.88326,0.9865 -0.67679,0.41295 -1.10121,0.41295 -0.43589,0 -0.75708,-0.30972 -0.32118,-0.30971 -0.32118,-0.83737 0,-0.36707 0.195,-1.0668 0.18354,-0.69972 0.18354,-1.17003 0,-0.79149 -0.53914,-0.79149 -1.65181,0 -3.7051,1.76652 -2.05329,1.76652 -3.52156,4.39336 -1.45681,2.61536 -1.45681,4.62277 0,1.33062 0.76855,2.2483 0.76855,0.91767 2.2483,0.91767 0.87179,0 2.19094,-0.47031 1.33063,-0.47031 2.45477,-1.27327 1.13562,-0.81443 1.54858,-0.81443 z"
       transform="matrix(0.90304572,0,0,0.90304572,6.4898763,5.5356167)" />
  </g>
</svg>
